<?xml version="1.0" encoding="UTF-8"?>
<svg version="1.1" xmlns="http://www.w3.org/2000/svg" width="512" height="512">
<path d="M0 0 C10.07563073 8.44209786 18.08817571 20.2723632 20.01171875 33.5234375 C19.93050781 34.48121094 19.84929687 35.43898437 19.765625 36.42578125 C19.50571935 39.66060692 19.36729981 42.33641324 20.01171875 45.5234375 C22.93518137 48.64813273 26.30924061 50.44788771 30.01171875 52.5234375 C33.8835853 55.26746304 36.22880496 57.98195157 38.69921875 62.0234375 C39.57126953 63.43109375 39.57126953 63.43109375 40.4609375 64.8671875 C43.33305166 69.78667775 44.5351478 72.66103212 44.01171875 78.5234375 C42.69921875 80.9609375 42.69921875 80.9609375 41.01171875 82.5234375 C40.02171875 82.5234375 39.03171875 82.5234375 38.01171875 82.5234375 C38.34171875 83.5134375 38.67171875 84.5034375 39.01171875 85.5234375 C39.09145351 86.85869467 39.11943213 88.19755833 39.109375 89.53515625 C39.10615234 90.29248047 39.10292969 91.04980469 39.09960938 91.83007812 C39.09123047 92.61576172 39.08285156 93.40144531 39.07421875 94.2109375 C39.06970703 95.00822266 39.06519531 95.80550781 39.06054688 96.62695312 C39.04877725 98.59248007 39.03084223 100.55796835 39.01171875 102.5234375 C39.79546875 102.6265625 40.57921875 102.7296875 41.38671875 102.8359375 C44.01171875 103.5234375 44.01171875 103.5234375 46.01171875 106.5234375 C46.82516648 112.52736759 45.67307062 118.25803124 44 124.00390625 C43.77935379 124.77695602 43.55870758 125.5500058 43.33137512 126.34648132 C41.00872724 134.10947518 37.75540982 141.35264788 34.25231934 148.64349365 C32.44269124 152.41094762 30.67734999 156.19896458 28.9140625 159.98828125 C28.39774765 161.09559601 28.39774765 161.09559601 27.8710022 162.22528076 C24.67163421 169.14463913 21.89416725 176.19336122 19.39526367 183.39575195 C17.8561817 187.74520973 16.36723838 191.20633985 13.01171875 194.5234375 C10.88378906 195.14990234 10.88378906 195.14990234 9.01171875 195.5234375 C9.4143015 222.18413297 11.95500734 248.51214209 16.3125 274.8125 C16.51708832 276.05137466 16.72167664 277.29024933 16.9324646 278.56666565 C17.95687134 284.73235397 19.00911935 290.89165964 20.1015625 297.0456543 C26.4481339 333.66767681 26.4481339 333.66767681 18.01171875 346.5859375 C14.95472121 349.54740386 13.16504447 349.66051112 9.01171875 349.6484375 C8.12484375 349.65101563 7.23796875 349.65359375 6.32421875 349.65625 C4.01171875 349.5234375 4.01171875 349.5234375 2.01171875 348.5234375 C1.86476563 349.131875 1.7178125 349.7403125 1.56640625 350.3671875 C-0.64413853 359.00609812 -3.76987354 367.22223702 -6.98828125 375.5234375 C-6.39420471 375.69196228 -5.80012817 375.86048706 -5.18804932 376.03411865 C1.35021286 377.93608633 7.68105304 380.20260799 14.02734375 382.6640625 C15.06539154 383.06331436 16.10343933 383.46256622 17.17294312 383.87391663 C20.53752893 385.16950034 23.89983068 386.47087074 27.26171875 387.7734375 C28.4100116 388.21763031 29.55830444 388.66182312 30.74139404 389.11947632 C36.60013365 391.38584246 42.45741331 393.65592734 48.31347656 395.92919922 C53.47538044 397.93139615 58.64336645 399.91700844 63.81542969 401.89279175 C67.29018814 403.22253408 70.76058329 404.56337368 74.2298584 405.90734863 C75.81312 406.51818553 77.39812787 407.12451856 78.98498535 407.72595215 C87.76219104 411.05692692 95.59902317 414.61861104 103.01171875 420.5234375 C103.67268555 421.02431885 104.33365234 421.5252002 105.01464844 422.04125977 C116.03104178 430.50791685 122.95156657 445.03022702 125.01171875 458.5234375 C125.71100075 465.37333857 126.47786344 473.01637486 123.01171875 479.2109375 C119.59716571 483.32237171 115.25593237 486.8017313 109.94905329 487.98229706 C107.74140789 488.16005791 105.58443027 488.18594068 103.36993408 488.15162659 C102.12047269 488.16226817 102.12047269 488.16226817 100.84576964 488.17312473 C98.07410931 488.19062896 95.30386545 488.17263945 92.53222656 488.15454102 C90.53755558 488.15968257 88.54288915 488.16696564 86.54823303 488.17622375 C81.14554619 488.19471085 75.7433539 488.18181789 70.34068775 488.16213346 C64.68510691 488.14573268 59.02955702 488.15456142 53.3739624 488.15965271 C43.88155219 488.16417057 34.38933925 488.1483191 24.89697266 488.12036133 C13.9177518 488.08827401 2.93888597 488.0883405 -8.04036021 488.1055761 C-18.60272985 488.12142715 -29.16496915 488.11471916 -39.72733307 488.09763908 C-44.2232942 488.09076123 -48.71915108 488.09180847 -53.21511078 488.09918404 C-58.50446688 488.106833 -63.79341763 488.09476611 -69.08270454 488.06733513 C-71.02576303 488.06043703 -72.96885928 488.06036851 -74.91191673 488.06755066 C-77.55987698 488.0762122 -80.20657657 488.06034625 -82.85443115 488.0381012 C-83.62718533 488.04634196 -84.39993951 488.05458273 -85.19611049 488.06307322 C-88.68811014 488.0087495 -90.64797014 487.77370424 -93.49664688 485.67877102 C-94.98828125 483.5234375 -94.98828125 483.5234375 -94.98828125 480.5234375 C-98.09407619 480.54623151 -101.19618609 480.62351569 -104.30078125 480.7109375 C-105.62239258 480.71963867 -105.62239258 480.71963867 -106.97070312 480.72851562 C-109.41003522 480.81199087 -111.61828548 480.93536765 -113.98828125 481.5234375 C-116.12446389 483.85652965 -116.12446389 483.85652965 -116.98828125 486.5234375 C-118.99188933 488.52704558 -123.05386488 487.67559764 -125.79933167 487.67733765 C-126.62758624 487.6817199 -127.45584082 487.68610215 -128.30919403 487.6906172 C-131.10660355 487.7040562 -133.90398154 487.71019554 -136.70141602 487.71630859 C-138.6984115 487.72420576 -140.69540555 487.73247446 -142.69239807 487.74108887 C-149.27148058 487.76736092 -155.85056962 487.78262497 -162.4296875 487.796875 C-164.69205162 487.80223318 -166.95441569 487.80761068 -169.21677971 487.81300735 C-178.62811639 487.83464664 -188.03945133 487.85338292 -197.45080662 487.86462975 C-210.9481251 487.8808636 -224.4451554 487.91401592 -237.94236523 487.97103059 C-247.42608381 488.00972729 -256.90972531 488.02926233 -266.39352077 488.03455031 C-272.06015723 488.03820507 -277.7264867 488.05023929 -283.3930378 488.08265305 C-288.72744014 488.11272739 -294.06134968 488.11904755 -299.39581871 488.10726929 C-301.35173504 488.10704848 -303.30767418 488.11535952 -305.26351166 488.13292313 C-307.93904724 488.15563752 -310.61279949 488.14730961 -313.28834534 488.13143921 C-314.05811394 488.1453213 -314.82788254 488.15920338 -315.62097746 488.17350614 C-322.19994427 488.07769389 -327.05339001 485.52648589 -331.64375025 480.82952344 C-336.40165804 475.10181417 -335.70974739 467.49604181 -335.18457031 460.48046875 C-333.65592605 445.23965733 -325.91112593 431.16786291 -314.31640625 421.234375 C-304.96093407 414.17812903 -294.59781103 409.81756459 -283.703125 405.6796875 C-282.53988205 405.23299713 -281.3766391 404.78630676 -280.17814636 404.32608032 C-277.06826414 403.13260404 -273.95683063 401.94335914 -270.8445816 400.75608063 C-265.70122634 398.79222655 -260.56208908 396.81733108 -255.42229462 394.84418106 C-254.14646056 394.35449741 -252.87054608 393.86502326 -251.59455109 393.37575912 C-243.71329263 390.35370942 -235.84410772 387.3047577 -228 384.1875 C-227.21332443 383.87508362 -226.42664886 383.56266724 -225.61613464 383.24078369 C-222.1054978 381.84454226 -218.59792209 380.44107304 -215.09350586 379.02929688 C-213.90635986 378.55556641 -212.71921387 378.08183594 -211.49609375 377.59375 C-209.99006592 376.98684326 -209.99006592 376.98684326 -208.45361328 376.36767578 C-205.98828125 375.5234375 -205.98828125 375.5234375 -202.98828125 375.5234375 C-203.26091797 374.77658691 -203.53355469 374.02973633 -203.81445312 373.26025391 C-205.04236549 369.8908414 -206.26538224 366.51967261 -207.48828125 363.1484375 C-207.91753906 361.9728125 -208.34679687 360.7971875 -208.7890625 359.5859375 C-209.19511719 358.46445312 -209.60117188 357.34296875 -210.01953125 356.1875 C-210.39658203 355.15061035 -210.77363281 354.1137207 -211.16210938 353.04541016 C-211.98828125 350.5234375 -211.98828125 350.5234375 -211.98828125 348.5234375 C-212.64828125 348.8534375 -213.30828125 349.1834375 -213.98828125 349.5234375 C-218.7876586 350.04160036 -222.72237251 350.23551117 -226.98828125 347.8359375 C-230.84822007 343.37288324 -231.45773238 338.42281003 -232.11328125 332.7109375 C-232.19964844 332.03740234 -232.28601563 331.36386719 -232.375 330.66992188 C-233.37761957 322.35454528 -232.88589378 314.81626984 -231.4140625 306.60546875 C-231.0743515 304.629172 -230.73526762 302.65276737 -230.39672852 300.67626953 C-230.21763947 299.64230042 -230.03855042 298.6083313 -229.85403442 297.54302979 C-226.34280168 277.1891521 -223.55671335 256.84921792 -221.44848633 236.30395508 C-221.35488831 235.39530197 -221.26129028 234.48664886 -221.16485596 233.55046082 C-220.99232666 231.85833972 -220.82365955 230.16581855 -220.65960693 228.47285461 C-220.34511156 225.33085538 -219.99058404 222.53034586 -218.98828125 219.5234375 C-218.83938378 217.67877308 -218.74037115 215.82986475 -218.671875 213.98046875 C-218.62998047 212.90732422 -218.58808594 211.83417969 -218.54492188 210.72851562 C-218.50560547 209.60896484 -218.46628906 208.48941406 -218.42578125 207.3359375 C-218.38259766 206.20478516 -218.33941406 205.07363281 -218.29492188 203.90820312 C-218.18879026 201.11340396 -218.0867374 198.31851588 -217.98828125 195.5234375 C-218.56578125 195.4409375 -219.14328125 195.3584375 -219.73828125 195.2734375 C-223.70354052 193.95168441 -225.52364221 191.44368071 -227.36938477 187.78808594 C-227.78115967 186.7468457 -228.19293457 185.70560547 -228.6171875 184.6328125 C-229.08954834 183.45992676 -229.56190918 182.28704102 -230.04858398 181.07861328 C-230.41583084 180.1481015 -230.41583084 180.1481015 -230.79049683 179.1987915 C-232.08708052 175.91530637 -233.41570715 172.64490743 -234.74609375 169.375 C-235.01512009 168.71253265 -235.28414642 168.05006531 -235.56132507 167.36752319 C-238.15181309 161.03465846 -241.01475652 154.83980728 -243.92578125 148.6484375 C-254.26915518 126.41844445 -259.63321178 104.23929924 -256.38671875 79.66015625 C-255.97748162 76.31175137 -256.06107504 73.95129853 -257.36328125 70.7734375 C-263.14884711 56.17434608 -261.06409918 37.6913336 -255.14257812 23.49609375 C-250.87094978 13.75569281 -245.83616886 3.84578921 -237.11328125 -2.6015625 C-231.53928429 -4.16228165 -226.39317888 -4.41248916 -220.95703125 -2.296875 C-216.65882389 0.33860478 -214.30162314 3.92719408 -211.33203125 7.9296875 C-207.35470804 12.33125852 -202.5760526 14.13470917 -196.7890625 14.76171875 C-175.74326236 15.38945847 -156.14040197 4.81379487 -137.50512695 -3.70410156 C-123.88350536 -9.92901944 -110.30653993 -15.99589975 -95.98828125 -20.4765625 C-94.88081543 -20.82799316 -94.88081543 -20.82799316 -93.75097656 -21.18652344 C-59.74412651 -31.52841683 -27.01809376 -21.61123008 0 0 Z " fill="#010101" transform="translate(360.98828125,24.4765625)"/>
<path d="M0 0 C0.71583252 0.00563965 1.43166504 0.0112793 2.16918945 0.01708984 C8.31137923 0.15663796 13.53917322 1.4137621 19.375 3.3125 C23.01473021 4.37566142 26.66426358 5.40397201 30.3125 6.4375 C32.93110581 7.18958238 35.54954169 7.94224757 38.16772461 8.69580078 C38.89612549 8.89931152 39.62452637 9.10282227 40.375 9.3125 C40.99112656 9.48853256 41.60725311 9.66456512 42.24205017 9.84593201 C44.47611775 10.33461881 46.42500003 10.41967565 48.70947266 10.39428711 C49.5578067 10.3877562 50.40614075 10.38122528 51.28018188 10.37449646 C52.64582779 10.35734337 52.64582779 10.35734337 54.0390625 10.33984375 C55.98567525 10.32718836 57.93228993 10.31482808 59.87890625 10.30273438 C62.93316758 10.27802036 65.98732679 10.25013937 69.04150391 10.21655273 C71.9990295 10.1860801 74.95642857 10.16848698 77.9140625 10.15234375 C78.81234772 10.13888412 79.71063293 10.1254245 80.63613892 10.11155701 C85.99622046 10.09067438 90.89087655 10.6432029 96.11657715 11.85125732 C99.81956323 12.60752633 103.48207876 12.65378186 107.25 12.625 C108.41607788 12.61762817 108.41607788 12.61762817 109.60571289 12.61010742 C119.70791582 12.40624428 128.1570842 9.74130211 137.1953125 5.30078125 C139.375 4.3125 139.375 4.3125 141.375 4.3125 C141.86437429 5.64212072 142.34083581 6.97649425 142.8125 8.3125 C143.07933594 9.055 143.34617187 9.7975 143.62109375 10.5625 C145.56683765 17.65992851 145.53210699 24.88682475 145.55200195 32.19140625 C145.55857315 33.25261688 145.56514435 34.31382751 145.57191467 35.40719604 C145.59152351 38.89646488 145.60327869 42.38569105 145.61328125 45.875 C145.61735678 47.07126007 145.6214323 48.26752014 145.62563133 49.50003052 C145.64643296 55.82456282 145.66076358 62.14907377 145.67016602 68.47363281 C145.68125499 74.99700454 145.71570086 81.52003751 145.75533772 88.04328918 C145.78148733 93.07052237 145.78985611 98.09767427 145.79344749 103.12496948 C145.79831284 105.5298798 145.80992526 107.93478651 145.82848549 110.33963013 C145.85285455 113.70455925 145.85191624 117.06860324 145.8449707 120.43359375 C145.86418579 121.91446976 145.86418579 121.91446976 145.88378906 123.42526245 C145.83629456 129.75205412 144.56449834 133.89535505 141.375 139.3125 C140.56275662 141.28331138 139.76904598 143.26193433 139 145.25 C137.41288244 149.17602765 135.71620517 152.4224354 133.1875 155.8125 C129.5636447 160.87099211 128.97194159 166.22987107 128.375 172.3125 C116.8507205 173.70336132 107.35767314 167.1442272 98.625 160.3125 C96.53542396 158.65353549 94.45605127 156.98218067 92.375 155.3125 C83.13082102 148.26347267 73.06552869 141.9375 61.140625 141.9375 C57.10938706 142.48410853 54.11564911 144.2794994 50.69921875 146.4140625 C48.375 147.3125 48.375 147.3125 45.78125 146.5625 C44.59015625 145.94375 44.59015625 145.94375 43.375 145.3125 C36.854252 141.9881971 31.09385558 141.0620777 23.8984375 142.96875 C12.82882602 147.04517835 3.78769132 154.49818699 -5.4050293 161.66674805 C-12.49066435 167.11913824 -20.06654118 172.5089994 -29.3125 172.375 C-30.12074219 172.36597656 -30.92898437 172.35695313 -31.76171875 172.34765625 C-32.68404297 172.33025391 -32.68404297 172.33025391 -33.625 172.3125 C-33.70234375 171.23935547 -33.70234375 171.23935547 -33.78125 170.14453125 C-34.67235148 162.31701485 -37.18811709 157.28629946 -41.51953125 150.77734375 C-44.61800971 145.93570672 -46.49439241 140.59526149 -48.49609375 135.234375 C-49.34079281 132.46179149 -49.34079281 132.46179149 -50.625 131.3125 C-50.7203919 129.93373975 -50.74688622 128.55013084 -50.74525452 127.16807556 C-50.74662918 126.27480057 -50.74800385 125.38152557 -50.74942017 124.46118164 C-50.74582489 123.47359863 -50.74222961 122.48601562 -50.73852539 121.46850586 C-50.73867142 120.43448135 -50.73881744 119.40045685 -50.7389679 118.33509827 C-50.73826827 114.89915914 -50.73047358 111.46327347 -50.72265625 108.02734375 C-50.72079225 105.65222707 -50.71936826 103.27711 -50.71836853 100.9019928 C-50.71454197 94.63673856 -50.7047105 88.37150733 -50.69366455 82.10626221 C-50.6834534 75.7186311 -50.67887155 69.33099629 -50.67382812 62.94335938 C-50.66308836 50.39972974 -50.64620127 37.85611609 -50.625 25.3125 C-49.81458252 25.05637939 -49.00416504 24.80025879 -48.16918945 24.53637695 C-47.09886475 24.19050537 -46.02854004 23.84463379 -44.92578125 23.48828125 C-43.86786377 23.14966064 -42.80994629 22.81104004 -41.7199707 22.4621582 C-35.54080844 20.16684582 -30.69757291 16.56380937 -26.1875 11.8125 C-19.1635637 4.42836184 -10.17874932 -0.08453108 0 0 Z " fill="#FDD1A3" transform="translate(208.625,112.6875)"/>
<path d="M0 0 C1.63318548 2.14281088 2.9307842 4.11651225 4.25 6.4375 C8.21116415 12.98423915 12.65237076 18.50278672 18 24 C18.69609375 24.75796875 19.3921875 25.5159375 20.109375 26.296875 C37.77646672 44.99562171 65.55500064 57.29674 91.1796875 58.21484375 C124.91040488 58.99655876 153.86194416 49.1751562 178.57958984 25.75146484 C185.07859348 19.437267 190.09825246 12.60956775 195 5 C196.32756857 2.99610139 197.66387943 0.99821603 199 -1 C205.06415992 0.18644203 210.6760322 1.83465229 216.40625 4.1328125 C217.19294571 4.44182495 217.97964142 4.7508374 218.79017639 5.06921387 C221.36272475 6.08133934 223.93143735 7.10280629 226.5 8.125 C229.22743533 9.2039547 231.95554235 10.28119773 234.68373108 11.35824585 C236.57039391 12.10322335 238.45673265 12.8490221 240.34275818 13.59561157 C247.05521232 16.24837796 253.78934912 18.83964792 260.53515625 21.40625 C263.314632 22.46946752 266.09367751 23.53380106 268.87255859 24.59857178 C270.65104304 25.27720613 272.43113697 25.95163902 274.21289062 26.62164307 C291.86004627 33.26391974 291.86004627 33.26391974 298 39 C298.76570313 39.63164062 299.53140625 40.26328125 300.3203125 40.9140625 C308.69986526 48.85831382 313.89982119 59.74098606 314.3125 71.3125 C314.36328125 73.86328125 314.36328125 73.86328125 314 76 C310.29289395 78.47140403 307.47537485 78.27803987 303.18727112 78.2515564 C302.38307029 78.25452654 301.57886947 78.25749667 300.75029892 78.26055682 C298.04643288 78.26821608 295.34278284 78.26169497 292.63891602 78.25537109 C290.70410006 78.25812006 288.76928523 78.26179938 286.83447266 78.26634216 C282.66345763 78.27446371 278.49249624 78.27662024 274.32147408 78.27439499 C267.72932154 78.27156745 261.13727666 78.28589259 254.54515076 78.30337524 C235.79826474 78.35045691 217.05138585 78.37434869 198.30444336 78.38085938 C187.95418273 78.38460575 177.60404366 78.40260105 167.25383514 78.43595374 C160.69750622 78.45621369 154.14148983 78.45851558 147.58514225 78.44767356 C143.50956298 78.44507218 139.43416686 78.45904235 135.35863495 78.47775459 C133.46556451 78.4830911 131.57246064 78.48155501 129.67940331 78.47271919 C127.09906555 78.46164492 124.51997361 78.47497413 121.93971252 78.49447632 C121.18689344 78.48535166 120.43407435 78.476227 119.65844256 78.46682584 C116.22392693 78.51749552 114.33944812 78.74279228 111.56626797 80.84409523 C109.83066835 83.00505698 109.83066835 83.00505698 109 86 C102.4 86 95.8 86 89 86 C88.34 84.35 87.68 82.7 87 81 C83.28357974 78.52238649 80.43634202 78.71632545 76.135849 78.73498535 C75.32615349 78.73060408 74.51645798 78.72622281 73.68222624 78.72170877 C70.9598888 78.70935362 68.23774315 78.71119925 65.51538086 78.71289062 C63.56746636 78.70686876 61.61955447 78.69994512 59.67164612 78.69218445 C55.4728055 78.67727734 51.2740126 78.66854177 47.07514763 78.66447449 C40.44153435 78.65777465 33.80802349 78.63603735 27.17445374 78.61193848 C11.89676979 78.55875051 -3.38094571 78.52540228 -18.65868378 78.49217987 C-32.66092576 78.46153063 -46.66312391 78.42675179 -60.66530889 78.37586927 C-67.26559428 78.3524594 -73.86580848 78.3387645 -80.46613133 78.33237457 C-84.56450976 78.32645553 -88.66283013 78.31237655 -92.76117897 78.29603004 C-94.66798909 78.29013115 -96.57481335 78.28768653 -98.48163223 78.28886986 C-101.0754905 78.29002108 -103.66901901 78.27907689 -106.26283264 78.26501465 C-107.02536836 78.26831362 -107.78790408 78.2716126 -108.57354695 78.27501154 C-113.77181416 78.22818584 -113.77181416 78.22818584 -116 76 C-117.59867362 66.66820747 -114.21698147 57.15420574 -109.3125 49.3125 C-97.94286264 33.71098769 -82.66000974 28.69130355 -65.19320679 22.20968628 C-57.22091893 19.24730276 -49.30242154 16.16147549 -41.39453125 13.03125 C-38.04665794 11.71163889 -34.69846644 10.39283751 -31.35025024 9.07409668 C-29.12017882 8.19272068 -26.89179211 7.30706976 -24.66513062 6.41711426 C-21.51036556 5.15710325 -18.34971788 3.91304016 -15.1875 2.671875 C-14.23345779 2.2860022 -13.27941559 1.90012939 -12.29646301 1.50256348 C-11.40843491 1.15721558 -10.5204068 0.81186768 -9.60546875 0.45605469 C-8.83356201 0.14947937 -8.06165527 -0.15709595 -7.26635742 -0.47296143 C-4.4722631 -1.12272455 -2.71826642 -0.88819617 0 0 Z " fill="#FDE459" transform="translate(157,419)"/>
<path d="M0 0 C19.36511081 -0.52750527 36.6206893 5.58032677 52.09765625 17.15625 C53.57105469 18.24292969 53.57105469 18.24292969 55.07421875 19.3515625 C61.03361613 23.96166236 65.55424386 28.47920761 69.09765625 35.15625 C69.60425781 36.07277344 69.60425781 36.07277344 70.12109375 37.0078125 C73.44806577 44.18064207 73.26639933 52.87605312 71.21875 60.375 C68.69859129 66.82926786 64.59484857 76.90765384 58.09765625 80.15625 C58.06325439 79.55264648 58.02885254 78.94904297 57.9934082 78.32714844 C56.9514045 61.37722151 54.99342187 47.37103026 42.03515625 35.22265625 C28.92634911 24.33766461 13.49390756 21.21595109 -3.046875 20.828125 C-5.89163623 20.92078928 -5.89163623 20.92078928 -7.76171875 22.48828125 C-9.56983101 25.13233583 -9.34686225 27.04462049 -8.90234375 30.15625 C-7.45135638 32.45439685 -7.45135638 32.45439685 -4.90234375 34.15625 C-2.01456524 34.64288876 0.63183387 34.93295805 3.53515625 35.09375 C15.98697769 36.1424829 27.04811111 39.70433356 35.80859375 48.96484375 C43.58281249 58.38871378 44.02349076 69.44357005 43.09765625 81.15625 C41.94200645 91.56842813 41.94200645 91.56842813 38.46875 94.55859375 C33.34204189 96.80605973 27.58721533 96.4599756 22.09765625 96.15625 C22.25492188 95.50011719 22.4121875 94.84398438 22.57421875 94.16796875 C24.22279194 84.68252151 24.52441228 74.71574492 19.58203125 66.234375 C13.29341456 57.43031164 5.37034462 51.84723829 -5.3359375 49.5859375 C-20.85002061 47.71677086 -37.23140051 47.93075585 -50.90234375 56.15625 C-52.79362717 58.04753342 -52.13902895 60.72692726 -52.23046875 63.24609375 C-52.1221875 63.87644531 -52.01390625 64.50679688 -51.90234375 65.15625 C-48.3957189 67.4939999 -47.0260463 67.4861462 -42.90234375 67.15625 C-41.21284761 66.54976421 -39.54597509 65.87784424 -37.90234375 65.15625 C-31.82669195 63.02444235 -26.15163722 62.70751778 -19.77734375 62.65625 C-18.85953125 62.63820312 -17.94171875 62.62015625 -16.99609375 62.6015625 C-9.3511247 62.66727857 -2.3978074 64.22955848 3.5703125 69.2265625 C4.09496094 69.90460938 4.61960937 70.58265625 5.16015625 71.28125 C5.70800781 71.96445313 6.25585938 72.64765625 6.8203125 73.3515625 C9.07764973 76.54082795 9.25889156 78.58682944 9.28515625 82.46875 C9.29933594 83.41363281 9.31351563 84.35851562 9.328125 85.33203125 C9.08500082 88.31133264 8.25708265 90.4229676 7.09765625 93.15625 C-1.05236656 93.4860045 -9.2027969 93.77154129 -17.35546875 94.02734375 C-20.30292549 94.13446498 -23.2401614 94.28653752 -26.18359375 94.46875 C-40.37037253 95.16494197 -52.87219894 90.84180259 -66.0703125 85.9921875 C-79.31781352 82.08189065 -94.73869465 82.59928291 -106.90234375 89.15625 C-112.33666433 92.53854849 -117.17862891 96.26601046 -121.58984375 100.90625 C-126.26529367 105.74788889 -130.98185716 108.32657851 -137.77734375 108.65625 C-148.86571771 108.1298494 -157.68974026 101.84937969 -165.08984375 93.96875 C-175.00516181 81.78865177 -177.94819149 67.43472139 -176.90234375 52.15625 C-174.84351596 40.82614038 -168.97300425 30.16528472 -161.90234375 21.15625 C-158.47168483 22.29980297 -158.14125655 22.94585109 -156.21484375 25.84375 C-151.48913262 32.32273479 -145.82289155 36.64802345 -138 38.69140625 C-133.97553792 39.29532931 -130.03056636 39.43919646 -125.96484375 39.46875 C-124.87453857 39.47720947 -124.87453857 39.47720947 -123.76220703 39.48583984 C-114.11409342 39.35948275 -104.97672166 37.19369888 -95.90234375 34.03125 C-94.46991333 33.53431641 -94.46991333 33.53431641 -93.00854492 33.02734375 C-81.92510896 29.0243907 -71.31083381 23.98640365 -60.63183594 19.02978516 C-21.48424606 0.86023007 -21.48424606 0.86023007 0 0 Z " fill="#665D66" transform="translate(292.90234375,14.84375)"/>
<path d="M0 0 C2.15143716 2.10948246 4.11262937 4.14641819 5.953125 6.5390625 C8.04521024 9.05435582 10.05531085 10.54707392 12.75 12.375 C17.11352239 15.75752612 19.5469327 19.28798366 21.9375 24.1875 C31.24908311 43.12931354 47.358603 55.58183036 66.8359375 63.09375 C77.82373007 66.57375469 88.33813375 65.81456311 99.0625 61.875 C103.89435542 60.43572392 107.81903829 60.66517935 112.5 62.4375 C126.13882798 67.23257717 138.77721342 65.24678506 151.734375 59.33984375 C160.87954812 54.91917036 167.93757984 49.23976306 175 42 C175.73863281 41.27039063 176.47726562 40.54078125 177.23828125 39.7890625 C182.30594097 34.49508011 185.64641065 28.66995877 189.04296875 22.234375 C192.17323208 17.06100566 196.57696693 13.42387019 201.0625 9.4375 C204.13519446 6.70568998 207.11918324 3.93404201 210 1 C210.17015625 1.96035156 210.3403125 2.92070312 210.515625 3.91015625 C210.63059326 4.55879639 210.74556152 5.20743652 210.86401367 5.87573242 C211.12622846 7.36128454 211.3867483 8.84713662 211.64575195 10.33325195 C212.42831288 14.81469633 213.24036739 19.28853582 214.08984375 23.7578125 C219.13289088 50.73421824 219.13289088 50.73421824 216 57 C214.89591797 56.91298828 214.89591797 56.91298828 213.76953125 56.82421875 C212.79371094 56.77910156 211.81789063 56.73398437 210.8125 56.6875 C209.84957031 56.62949219 208.88664063 56.57148438 207.89453125 56.51171875 C203.71409853 57.21691995 202.52784864 58.60558118 200 62 C198.64068186 65.42398178 197.73941712 68.93836078 196.8125 72.5 C194.46647076 80.83618841 191.64746403 88.63831166 187.875 96.4375 C187.46741455 97.28183594 187.0598291 98.12617188 186.63989258 98.99609375 C184.05681638 104.19872292 181.17315863 109.13611392 178 114 C177.175 113.67 176.35 113.34 175.5 113 C171.44354432 111.84101266 168.11660353 110.95304374 164 112 C160.087525 114.3486742 156.59034673 117.19210124 153 120 C141.50733492 128.14870434 128.6947615 133.92156094 115.4375 138.5625 C114.71232178 138.82619385 113.98714355 139.0898877 113.23999023 139.36157227 C104.96900104 142.11285073 98.07343001 140.0195161 90.1875 137.0625 C89.37361816 136.75892578 88.55973633 136.45535156 87.72119141 136.14257812 C74.92760372 131.20478829 62.4094647 125.02153607 52 116 C47.58501257 112.41282271 44.77750272 111.56546341 39.24609375 111.6640625 C36.6179418 112.05714262 34.425805 112.93418058 32 114 C23.41832344 99.36639281 16.51945843 85.06227078 12.0402832 68.64941406 C10.49947173 62.81571246 10.49947173 62.81571246 7 58 C3.98509443 56.99503148 1.95818308 56.89664697 -1.1875 56.9375 C-2.08855469 56.94652344 -2.98960937 56.95554687 -3.91796875 56.96484375 C-4.60503906 56.97644531 -5.29210937 56.98804688 -6 57 C-9.42346662 44.99014647 -5.6539112 31.70906015 -3.5 19.75 C-3.16182902 17.82959086 -2.8245819 15.9090188 -2.48828125 13.98828125 C-1.66949324 9.3235742 -0.83823517 4.66124999 0 0 Z " fill="#675D67" transform="translate(151,298)"/>
<path d="M0 0 C0.66 0.33 1.32 0.66 2 1 C1.67 1.33 1.34 1.66 1 2 C0.90314682 4.08827321 0.87813118 6.17988362 0.87974548 8.270401 C0.87846385 9.26398586 0.87846385 9.26398586 0.87715632 10.27764314 C0.87549967 12.5133287 0.88102586 14.74894042 0.88647461 16.98461914 C0.88675647 18.58080544 0.88659877 20.17699187 0.8860321 21.7731781 C0.88574408 26.12009895 0.89164165 30.46699244 0.89860606 34.81390691 C0.90483872 39.35163947 0.90544333 43.88937259 0.90663147 48.42710876 C0.90974505 57.0260784 0.91795878 65.62503539 0.92798096 74.22399944 C0.93914128 84.01101728 0.94465234 93.79803571 0.94967639 103.58505833 C0.96014138 123.72337929 0.97774132 143.86168885 1 164 C-0.43859493 164.66305784 -1.87976982 165.32052014 -3.32202148 165.97558594 C-4.12429672 166.34230408 -4.92657196 166.70902222 -5.75315857 167.08685303 C-9.64906241 168.67020143 -12.86389748 168.26260968 -17 168 C-17.07734375 166.92685547 -17.07734375 166.92685547 -17.15625 165.83203125 C-18.04735148 158.00451485 -20.56311709 152.97379946 -24.89453125 146.46484375 C-27.99300971 141.62320672 -29.86939241 136.28276149 -31.87109375 130.921875 C-32.71579281 128.14929149 -32.71579281 128.14929149 -34 127 C-34.0953919 125.62123975 -34.12188622 124.23763084 -34.12025452 122.85557556 C-34.12162918 121.96230057 -34.12300385 121.06902557 -34.12442017 120.14868164 C-34.12082489 119.16109863 -34.11722961 118.17351562 -34.11352539 117.15600586 C-34.11367142 116.12198135 -34.11381744 115.08795685 -34.1139679 114.02259827 C-34.11326827 110.58665914 -34.10547358 107.15077347 -34.09765625 103.71484375 C-34.09579225 101.33972707 -34.09436826 98.96461 -34.09336853 96.5894928 C-34.08954197 90.32423856 -34.0797105 84.05900733 -34.06866455 77.79376221 C-34.0584534 71.4061311 -34.05387155 65.01849629 -34.04882812 58.63085938 C-34.03808836 46.08722974 -34.02120127 33.54361609 -34 21 C-33.18958252 20.74387939 -32.37916504 20.48775879 -31.54418945 20.22387695 C-30.47386475 19.87800537 -29.40354004 19.53213379 -28.30078125 19.17578125 C-27.24286377 18.83716064 -26.18494629 18.49854004 -25.0949707 18.1496582 C-17.99809246 15.51345093 -12.78756957 11.03681396 -7.640625 5.61328125 C-5.30754408 3.31908501 -2.78773471 1.69983824 0 0 Z " fill="#FDBC85" transform="translate(192,117)"/>
<path d="M0 0 C2.15143716 2.10948246 4.11262937 4.14641819 5.953125 6.5390625 C8.04521024 9.05435582 10.05531085 10.54707392 12.75 12.375 C17.11352239 15.75752612 19.5469327 19.28798366 21.9375 24.1875 C30.7380981 42.08985735 45.71736612 54.41734079 64 62 C67.63411775 63.194311 71.26015718 64.19860511 75 65 C74.01 65.495 74.01 65.495 73 66 C71.75483376 73.55879764 71.78269028 81.16706136 71.75 88.8125 C71.729375 90.00681641 71.70875 91.20113281 71.6875 92.43164062 C71.64269714 102.71949802 73.36832099 111.91981149 77.5 121.375 C78.14001953 122.84839844 78.14001953 122.84839844 78.79296875 124.3515625 C80.12630862 127.27714318 81.49942977 130.1568143 83 133 C78.03078339 132.39352081 74.09574703 130.20664298 69.75 127.875 C68.99291748 127.47192627 68.23583496 127.06885254 67.45581055 126.65356445 C61.84407787 123.60199261 56.86503308 120.14548073 52 116 C47.58501257 112.41282271 44.77750272 111.56546341 39.24609375 111.6640625 C36.6179418 112.05714262 34.425805 112.93418058 32 114 C23.41832344 99.36639281 16.51945843 85.06227078 12.0402832 68.64941406 C10.49947173 62.81571246 10.49947173 62.81571246 7 58 C3.98509443 56.99503148 1.95818308 56.89664697 -1.1875 56.9375 C-2.08855469 56.94652344 -2.98960937 56.95554687 -3.91796875 56.96484375 C-4.60503906 56.97644531 -5.29210937 56.98804688 -6 57 C-9.42346662 44.99014647 -5.6539112 31.70906015 -3.5 19.75 C-3.16182902 17.82959086 -2.8245819 15.9090188 -2.48828125 13.98828125 C-1.66949324 9.3235742 -0.83823517 4.66124999 0 0 Z " fill="#534D54" transform="translate(151,298)"/>
<path d="M0 0 C2.50034343 1.48097265 4.99462311 2.96701788 7.44799805 4.52490234 C25.44588613 15.92841769 43.36124262 20.82150983 64.5390625 21.50390625 C57.53071902 34.17371286 45.16216145 42.27805419 31.9765625 47.50390625 C22.9189521 50.07499046 14.76797163 48.88285336 6.22265625 45.41015625 C-0.2521387 43.22361705 -6.22477269 43.74252263 -12.3984375 46.50390625 C-20.377521 50.05719066 -28.82345434 49.33970046 -36.96484375 46.5390625 C-48.77234928 41.64236615 -59.98497026 34.04947593 -67.4609375 23.50390625 C-67.4609375 22.84390625 -67.4609375 22.18390625 -67.4609375 21.50390625 C-66.15640625 21.39433594 -64.851875 21.28476562 -63.5078125 21.171875 C-43.0253386 19.36176852 -23.65873233 14.69559755 -6.91259766 2.12255859 C-3.08917387 -0.62273822 -3.08917387 -0.62273822 0 0 Z " fill="#FBD0A2" transform="translate(257.4609375,300.49609375)"/>
<path d="M0 0 C3.43065892 1.14355297 3.7610872 1.78960109 5.6875 4.6875 C9.57364451 10.09895623 14.52393348 13.34928898 20 17 C19.505 17.495 19.505 17.495 19 18 C18.67345073 34.14086371 24.74089567 48.63147851 35.75 60.3125 C40.3526709 64.75428726 45.09094198 67.61123187 51 70 C50.360625 70.474375 49.72125 70.94875 49.0625 71.4375 C46.38648955 73.67661079 44.08809932 75.97895539 41.6875 78.5 C36.33708382 83.85924525 31.83047154 87.10330646 24.125 87.5 C13.03662604 86.9735994 4.21260349 80.69312969 -3.1875 72.8125 C-13.10281806 60.63240177 -16.04584774 46.27847139 -15 31 C-12.94117221 19.66989038 -7.0706605 9.00903472 0 0 Z " fill="#534D54" transform="translate(131,36)"/>
<path d="M0 0 C1.51143803 0.95052044 2.98842943 1.95686601 4.4375 3 C7.51113775 5.18145767 8.86404872 5.97926167 12.6875 6.5625 C17.1398411 5.80644208 20.53926815 4.41036179 23.8125 1.25 C26.89117524 -0.50924299 29.08794323 -0.22863045 32.5390625 0.32421875 C41.3571632 2.7456972 48.51309403 9.66205942 55.6015625 15.16650391 C67.31701823 24.18937817 78.43724528 29.41579509 93 32 C88.80953895 36.71272413 82.72233024 38.02243692 76.59765625 38.50390625 C55.72687256 39.13032697 37.56237575 30.5550305 20.9375 18.375 C17.4857665 16.06940195 14.75289344 14.86594864 10.55078125 15.15625 C6.39445481 16.53108386 3.15843746 19.22454238 -0.27294922 21.86352539 C-16.31087145 34.03191962 -35.97756857 39.84182604 -56 38 C-59.61656324 37.11371098 -62.86417607 36.03124292 -66 34 C-66.33 33.34 -66.66 32.68 -67 32 C-66.00742188 31.79246094 -65.01484375 31.58492188 -63.9921875 31.37109375 C-49.85893591 28.24205106 -38.54180679 22.6407718 -27.24609375 13.5703125 C-23.92481985 10.90802955 -20.49305569 8.43103519 -17 6 C-15.96875 5.278125 -14.9375 4.55625 -13.875 3.8125 C-9.29073701 0.92242116 -5.45411355 -0.83909439 0 0 Z " fill="#524C53" transform="translate(243,269)"/>
<path d="M0 0 C-0.58007812 1.14662109 -0.58007812 1.14662109 -1.171875 2.31640625 C-8.38627316 17.15592325 -11.05547368 31.42579719 -11.015625 47.828125 C-11.01393311 49.15191162 -11.01393311 49.15191162 -11.01220703 50.50244141 C-11.00927624 52.66829611 -11.00479288 54.83414862 -11 57 C-17.65686814 57.0505916 -24.31368694 57.0856876 -30.97070312 57.10986328 C-33.23667249 57.11993859 -35.50262881 57.13359918 -37.76855469 57.15087891 C-41.02021501 57.17506011 -44.27170387 57.18646763 -47.5234375 57.1953125 C-49.05005508 57.21079636 -49.05005508 57.21079636 -50.60751343 57.22659302 C-51.54833771 57.22674408 -52.48916199 57.22689514 -53.45849609 57.22705078 C-54.70425919 57.23371262 -54.70425919 57.23371262 -55.97518921 57.24050903 C-58 57 -58 57 -60 55 C-61.59867362 45.66820747 -58.21698147 36.15420574 -53.3125 28.3125 C-43.11714407 14.32234658 -30.00836702 9.01847914 -14.3125 3 C-13.24829834 2.58943359 -12.18409668 2.17886719 -11.08764648 1.75585938 C-10.08548096 1.38267578 -9.08331543 1.00949219 -8.05078125 0.625 C-6.69980347 0.11839844 -6.69980347 0.11839844 -5.3215332 -0.3984375 C-3 -1 -3 -1 0 0 Z " fill="#FCD101" transform="translate(101,440)"/>
<path d="M0 0 C7.87938148 2.90223884 12.69883768 9.49772589 16.4375 16.8125 C18.5243232 19.73405248 20.64092507 19.97767285 24 21 C24.90238747 23.70716242 25.11851302 25.23776768 25.09765625 28.01171875 C25.09443359 28.76904297 25.09121094 29.52636719 25.08789062 30.30664062 C25.07532227 31.48516602 25.07532227 31.48516602 25.0625 32.6875 C25.05798828 33.48478516 25.05347656 34.28207031 25.04882812 35.10351562 C25.0370585 37.06904257 25.01912348 39.03453085 25 41 C24.21625 41.28875 23.4325 41.5775 22.625 41.875 C19.90328368 42.84912254 19.90328368 42.84912254 18 45 C17.32672292 47.43732183 16.73666946 49.84751038 16.1875 52.3125 C13.21492441 64.74063114 8.24560402 75.8689143 2.65380859 87.31518555 C-0.16910431 93.11575941 -2.68559644 98.97836178 -5 105 C-5.33 105 -5.66 105 -6 105 C-6.01213028 103.9533593 -6.01213028 103.9533593 -6.02450562 102.88557434 C-6.10302269 96.25249945 -6.1904759 89.61960636 -6.28752708 82.9867754 C-6.33709748 79.57821895 -6.38342441 76.16968778 -6.421875 72.76098633 C-6.46641177 68.82617012 -6.52589046 64.89164236 -6.5859375 60.95703125 C-6.59748871 59.75544876 -6.60903992 58.55386627 -6.62094116 57.31587219 C-6.79873065 46.93447085 -7.1845557 36.6099693 -12.125 27.3125 C-13.46484375 24.05859375 -13.46484375 24.05859375 -14 21 C-12.54326166 17.89929362 -10.75049855 15.93915933 -8.35546875 13.5 C-4.63054299 9.54651329 -2.4204725 4.82260809 0 0 Z " fill="#524C53" transform="translate(375,86)"/>
<path d="M0 0 C0.63164062 0.4125 1.26328125 0.825 1.9140625 1.25 C31.7791097 20.92902002 31.7791097 20.92902002 66 27 C69.91726156 26.06536024 73.69530465 24.81424496 77.5 23.5 C78.55864258 23.1397876 79.61728516 22.7795752 80.70800781 22.40844727 C96.10806651 17.02591384 110.59708624 9.307579 124 0 C125.36125 0.928125 125.36125 0.928125 126.75 1.875 C129.15944116 3.45040384 131.42554349 4.7575449 134 6 C117.44512516 23.63454059 93.66985505 36.52128857 69.08203125 37.30078125 C66.9922732 37.32010639 64.90231809 37.32356827 62.8125 37.3125 C61.71260742 37.30758545 60.61271484 37.3026709 59.47949219 37.29760742 C36.11179653 36.96245733 13.10394246 28.12492892 -4 12 C-6.13868841 9.73648542 -8.07139783 7.449846 -10 5 C-9.16855469 4.70996094 -9.16855469 4.70996094 -8.3203125 4.4140625 C-7.59585938 4.15367187 -6.87140625 3.89328125 -6.125 3.625 C-5.04605469 3.24214844 -5.04605469 3.24214844 -3.9453125 2.8515625 C-1.81842006 2.06122217 -1.81842006 2.06122217 0 0 Z " fill="#F9ECAB" transform="translate(194,426)"/>
<path d="M0 0 C0.44988281 0.36351563 0.89976563 0.72703125 1.36328125 1.1015625 C8.08517806 6.35514918 15.38952297 10.19476149 23 14 C23 32.15 23 50.3 23 69 C21.468264 66.70239601 20.38577392 64.7870221 19.30078125 62.296875 C18.98214111 61.57169678 18.66350098 60.84651855 18.33520508 60.09936523 C17.9977124 59.32407471 17.66021973 58.54878418 17.3125 57.75 C14.30611564 50.86471991 14.30611564 50.86471991 11.09375 44.07421875 C5.22965497 32.14310786 -0.2247194 18.65171007 -0.0625 5.1875 C-0.05347656 4.21167969 -0.04445313 3.23585938 -0.03515625 2.23046875 C-0.02355469 1.49441406 -0.01195313 0.75835937 0 0 Z " fill="#524D53" transform="translate(120,122)"/>
<path d="M0 0 C7.59249606 3.3309885 13.96037979 9.01834232 20.44116211 14.08959961 C26.94697563 19.11382677 33.72425635 23.18340547 41 27 C41 27.33 41 27.66 41 28 C19.84354901 29.06671181 -0.45283547 21.22922408 -17 8 C-16.43880198 4.72400653 -15.64212206 3.21190371 -13 1.1875 C-8.53113802 -1.74319971 -5.00157264 -1.58424606 0 0 Z " fill="#665C66" transform="translate(278,270)"/>
<path d="M0 0 C2.8604605 1.7793823 5.43902395 3.81602042 8 6 C6.51102017 10.39745375 3.19265099 12.10406139 -0.625 14.3125 C-1.61838379 14.89572021 -1.61838379 14.89572021 -2.63183594 15.49072266 C-16.96482658 23.71418347 -31.38805658 29.15925592 -48 30 C-48 29.01 -48 28.02 -48 27 C-47.35675781 26.68289063 -46.71351563 26.36578125 -46.05078125 26.0390625 C-39.893402 22.85936023 -34.42172121 19.18410222 -28.99731445 14.90283203 C-25.07809285 11.81326912 -21.09368952 8.85479437 -17 6 C-15.96875 5.278125 -14.9375 4.55625 -13.875 3.8125 C-9.30447313 0.93108089 -5.44315116 -0.85382763 0 0 Z " fill="#665C66" transform="translate(243,269)"/>
<path d="M0 0 C-0.99 0 -1.98 0 -3 0 C-1.39725825 2.89662414 0.20744783 5.79215554 1.8125 8.6875 C2.26431641 9.50412109 2.71613281 10.32074219 3.18164062 11.16210938 C5.39245343 15.14802736 7.61724171 19.11317502 10 23 C3.71936375 21.51248089 -0.91163845 17.77772297 -6 14 C-6.886875 13.360625 -7.77375 12.72125 -8.6875 12.0625 C-12.10633744 9.01326661 -15.24652276 5.66601292 -18 2 C-18 1.34 -18 0.68 -18 0 C-15.75067773 -0.1954625 -13.50049858 -0.38108226 -11.25 -0.5625 C-9.99703125 -0.66691406 -8.7440625 -0.77132813 -7.453125 -0.87890625 C-4.60547636 -0.97876723 -2.65713933 -0.90584295 0 0 Z " fill="#F7B782" transform="translate(208,322)"/>
<path d="M0 0 C0.66 0 1.32 0 2 0 C4.36503039 2.99106784 5.91553181 5.02861582 6.25 8.875 C6.1675 9.57625 6.085 10.2775 6 11 C2.535 12.485 2.535 12.485 -1 14 C-0.67 9.38 -0.34 4.76 0 0 Z " fill="#4A454B" transform="translate(154,272)"/>
<path d="M0 0 C0.66 0 1.32 0 2 0 C2.33 4.62 2.66 9.24 3 14 C0.69 13.01 -1.62 12.02 -4 11 C-4.42820102 7.36029133 -3.97413512 5.95430537 -2.125 2.6875 C-1.42375 1.800625 -0.7225 0.91375 0 0 Z " fill="#5B525B" transform="translate(356,272)"/>
</svg>
