<?xml version="1.0" encoding="UTF-8"?>
<svg version="1.1" xmlns="http://www.w3.org/2000/svg" width="3139" height="681">
<path d="M0 0 C5.45813559 3.36325896 8.40270701 7.82627153 11.0625 13.5 C18.75135819 28.88285599 28.25393986 43.5725033 39 57 C40.06927734 58.35544922 40.06927734 58.35544922 41.16015625 59.73828125 C65.98301161 90.6902367 99.29554277 117.2032331 139.75048828 122.76318359 C146.40679344 123.46392334 153.12071846 123.71830981 159.80273438 124.07421875 C171.34604971 124.7869928 182.90613332 126.13291244 193.25 131.625 C193.91837891 131.97344971 194.58675781 132.32189941 195.27539062 132.6809082 C210.90231127 141.15681408 218.51150507 154.56315315 223.56640625 171.02734375 C224.6083847 174.56806805 225.57954452 178.12438757 226.52734375 181.69140625 C226.78435059 182.65699463 227.04135742 183.62258301 227.30615234 184.61743164 C227.79464622 186.47916412 228.27111598 188.34411223 228.73291016 190.21264648 C230.78052904 198.16765323 233.02387819 206.60739978 240.375 211.0625 C249.68717961 215.4338372 260.29855478 214.77650789 270 212 C276.97127857 209.05061291 279.16842149 202.60825074 282 196 C283.57375101 191.21880724 284.83598402 186.38045815 286.0625 181.5 C290.60078657 163.66500166 296.54135822 145.44736321 312.79199219 134.82910156 C314.74889775 133.67288408 316.72876408 132.60192997 318.75 131.5625 C319.35634277 131.24466553 319.96268555 130.92683105 320.58740234 130.59936523 C331.37242545 125.4372673 343.36278566 124.60835485 355.125 124.0625 C395.44635529 121.6783615 427.39978814 105.32806452 456 77 C456.60521484 76.40654785 457.21042969 75.8130957 457.83398438 75.20166016 C476.10100902 57.16370439 490.55046627 34.34452642 502.171875 11.58520508 C504.82597962 6.54230327 507.22648706 3.19081691 512 0 C515.791136 -1.04204823 519.20237632 -0.33677444 522.8125 1.1875 C526.1443303 3.9481594 527.81774405 6.57768655 528.37231445 10.90551758 C528.3693335 11.97439209 528.36635254 13.0432666 528.36328125 14.14453125 C528.36473145 15.9702063 528.36473145 15.9702063 528.36621094 17.83276367 C528.33962402 19.80273315 528.33962402 19.80273315 528.3125 21.8125 C528.30107739 23.20353166 528.28968472 24.59456357 528.27832031 25.9855957 C527.32651721 111.15009292 509.25340724 197.60496609 432.5625 339.5625 C431.71921143 340.65389282 431.71921143 340.65389282 430.85888672 341.76733398 C429.24489537 343.84935974 427.62369669 345.92553944 426 348 C425.23816406 348.9796875 424.47632813 349.959375 423.69140625 350.96875 C416.95593952 359.42309765 409.48058249 367.20891042 402 375 C401.22124512 375.81380127 401.22124512 375.81380127 400.42675781 376.64404297 C394.01213261 383.31568514 387.26537514 389.27694081 380 395 C378.92991843 395.87108162 377.86094884 396.74353065 376.79296875 397.6171875 C337.96874411 429.13935017 288.75102077 446.12154211 238.59375 441.69970703 C193.41030246 436.37082988 154.1097857 415.54609554 121 385 C119.27198808 383.45703913 117.54281851 381.91537377 115.8125 380.375 C109.75447845 374.91331494 104.11306242 369.25684918 98.796875 363.0703125 C97.61944829 361.71371216 96.42196052 360.37420943 95.203125 359.0546875 C76.71073794 338.95758917 61.98924093 314.89949856 49 291 C48.5054834 290.09991211 48.0109668 289.19982422 47.50146484 288.27246094 C17.52615507 233.47971171 0.9219014 172.3369309 -9 111 C-9.17756836 109.91090332 -9.35513672 108.82180664 -9.53808594 107.69970703 C-13.39496372 83.47602628 -15.42183807 58.51585876 -16 34 C-16.02723145 32.94329102 -16.05446289 31.88658203 -16.08251953 30.79785156 C-16.16008293 27.38603788 -16.20990567 23.97494594 -16.25 20.5625 C-16.27151123 19.50087646 -16.29302246 18.43925293 -16.31518555 17.34545898 C-16.33881246 11.81453218 -16.20773757 7.73817621 -13 3 C-9.16833551 -0.28428385 -4.89848113 -1.14530512 0 0 Z " fill="#C6AA65" transform="translate(931,170)"/>
<path d="M0 0 C0.63421875 0.53238281 1.2684375 1.06476563 1.921875 1.61328125 C2.55609375 2.11472656 3.1903125 2.61617187 3.84375 3.1328125 C10.14177838 8.66377332 13.32760979 15.89564954 14.3671875 24.1484375 C14.69588611 34.21757165 12.65633557 41.59875285 6.296875 49.42578125 C-0.30659944 56.41260346 -8.47290989 59.65275695 -17.953125 60.05078125 C-22.06693242 60.01059754 -24.67552826 59.87773107 -27.765625 57.05078125 C-30.38937633 53.76915717 -31.078125 50.83599523 -31.078125 46.61328125 C-30.00191876 42.09321504 -27.73265141 39.43031203 -24.078125 36.61328125 C-21.51248154 35.92883643 -19.01705682 35.49624844 -16.3828125 35.16796875 C-13.70089236 34.52248966 -12.75005875 33.77481554 -11.078125 31.61328125 C-9.79570401 27.76601827 -9.8353459 26.15161751 -11.515625 22.42578125 C-15.15035745 18.43644075 -19.26338337 16.93957543 -24.53588867 16.32836914 C-27.18165973 16.21129962 -29.80513601 16.20374226 -32.453125 16.23828125 C-33.33484375 16.22667969 -34.2165625 16.21507813 -35.125 16.203125 C-46.05756371 16.25121546 -55.6455622 19.54851998 -64.078125 26.61328125 C-66.61178255 29.73969926 -68.3783402 32.97640403 -70.078125 36.61328125 C-70.45453125 37.34933594 -70.8309375 38.08539063 -71.21875 38.84375 C-74.94849592 46.92950515 -75.82218917 55.87881843 -77.078125 64.61328125 C-76.04751953 64.98839844 -76.04751953 64.98839844 -74.99609375 65.37109375 C-71.61978995 66.80839577 -68.53682516 68.61749758 -65.390625 70.48828125 C-59.79072849 73.74669627 -54.243789 76.55444793 -48.078125 78.61328125 C-47.41683594 78.83757812 -46.75554688 79.061875 -46.07421875 79.29296875 C-34.62778135 82.66908968 -24.02654903 80.29173182 -13.640625 74.98828125 C-7.55391012 71.50893721 -2.33280076 67.23057744 2.921875 62.61328125 C3.76363281 61.88238281 4.60539062 61.15148437 5.47265625 60.3984375 C10.6366016 55.78750511 15.56352223 50.98657368 20.41015625 46.04296875 C21.41697871 45.02033179 22.42381483 43.99770827 23.43066406 42.97509766 C25.42832469 40.94493471 27.41074924 38.90131329 29.38574219 36.84912109 C36.92774972 29.10652654 44.9487451 22.87167977 55.046875 18.80078125 C55.95695312 18.42308594 56.86703125 18.04539062 57.8046875 17.65625 C75.01523565 11.89783351 95.58132739 12.33735068 112.02734375 20.07421875 C115.96117869 22.1216837 119.40944998 24.17883395 122.796875 27.05078125 C124.79658993 28.88081793 124.79658993 28.88081793 127.2421875 28.4140625 C130.28906238 27.50355324 132.32131665 26.18684351 134.921875 24.36328125 C146.44436365 16.77530092 157.46372705 14.42687042 170.984375 14.36328125 C172.05365234 14.34265625 173.12292969 14.32203125 174.22460938 14.30078125 C193.14626199 14.20931707 208.64595604 21.30170633 221.98158264 34.44276428 C224.98355556 37.45769938 227.95789911 40.49852521 230.921875 43.55078125 C238.91478406 51.7580554 246.84007111 59.59540004 255.921875 66.61328125 C256.86538818 67.35433105 257.80890137 68.09538086 258.78100586 68.85888672 C269.42588173 77.13409085 280.44924244 81.53388164 293.921875 80.61328125 C303.24018431 79.19496933 311.71781918 74.74989706 320.05175781 70.54736328 C321.61574824 69.76618477 323.20028727 69.0263263 324.7890625 68.296875 C327.2533881 67.15037099 327.2533881 67.15037099 329.921875 64.61328125 C330.64489174 60.93794617 330.57769957 59.20305786 329.921875 55.61328125 C329.58736328 53.7725 329.58736328 53.7725 329.24609375 51.89453125 C327.03947424 41.19275016 323.17338345 29.70628429 314.11328125 22.85546875 C301.44267412 15.67319947 286.95259325 13.74203198 272.921875 17.61328125 C268.10302093 19.64401229 268.10302093 19.64401229 264.921875 23.61328125 C264.52785725 28.39079595 264.52785725 28.39079595 266.1328125 32.78125 C268.36718123 35.06928261 269.65732282 35.20247227 272.796875 35.55078125 C277.62134192 36.33844932 279.84317179 37.66869276 282.921875 41.61328125 C285.41996707 45.36041935 285.11141174 47.07778052 284.54296875 51.38671875 C283.600605 54.76500388 281.60299916 56.46838192 278.921875 58.61328125 C278.591875 58.94328125 278.261875 59.27328125 277.921875 59.61328125 C269.20858587 60.34881864 261.48977869 59.98776866 254.3203125 54.69140625 C246.83653831 48.28935754 240.62473072 41.05273875 239.66796875 30.92578125 C239.28606107 21.26721278 241.84479431 13.20963211 247.921875 5.61328125 C257.59231265 -4.63141041 269.76406163 -8.24943339 283.48364258 -8.72119141 C301.40429302 -9.01906143 319.52538189 -5.37851416 333.11206055 7.03393555 C348.88559615 22.40518999 354.83798267 42.70169047 355.21435547 64.35668945 C355.35590371 87.38244599 349.53948461 104.25010204 333.49609375 121.171875 C309.45222905 144.55900288 274.62718331 151.05079102 242.23535156 150.84545898 C218.61915402 150.4365116 196.04211882 145.87786854 173.921875 137.61328125 C172.74753906 137.175 171.57320312 136.73671875 170.36328125 136.28515625 C154.90364245 130.0655559 140.73270885 121.21614373 127.921875 110.61328125 C122.46686587 113.64907278 122.46686587 113.64907278 117.421875 117.30078125 C81.66646112 144.58236872 31.94830683 154.97489863 -12.23925781 149.84204102 C-40.51560131 145.97817627 -68.65591928 135.81329722 -87.078125 113.05078125 C-100.57568375 94.28412202 -103.02987598 73.7472265 -100.390625 51.30078125 C-97.49548582 34.25387784 -91.42047683 19.97743936 -79.078125 7.61328125 C-78.51351562 7.03707031 -77.94890625 6.46085937 -77.3671875 5.8671875 C-59.34565078 -11.05547503 -20.20238609 -15.30368721 0 0 Z " fill="#C4A863" transform="translate(1060.078125,77.38671875)"/>
<path d="M0 0 C1.16227867 -0.00306656 1.16227867 -0.00306656 2.34803772 -0.00619507 C4.89730824 -0.00919096 7.44592397 0.00924608 9.99511719 0.02832031 C11.77862386 0.03138172 13.56213294 0.03325494 15.34564209 0.03399658 C19.08127013 0.0385931 22.81668183 0.05298833 26.55224609 0.07519531 C31.31762432 0.10339462 36.08283194 0.11440003 40.84828568 0.11887741 C45.41808437 0.12406105 49.98784119 0.13858735 54.55761719 0.15332031 C55.84936733 0.1561414 55.84936733 0.1561414 57.16721344 0.15901947 C81.91434928 0.22880241 81.91434928 0.22880241 84.04199219 2.35644531 C84.06152344 4.35253906 84.06152344 4.35253906 83.85449219 6.79394531 C83.7990625 7.59703125 83.74363281 8.40011719 83.68652344 9.22753906 C83.04199219 11.35644531 83.04199219 11.35644531 81.34277344 12.66503906 C78.47863158 13.52574044 76.38389682 13.33371631 73.41699219 12.98144531 C67.9247124 12.40792715 62.55764859 12.27028472 57.04199219 12.35644531 C55.92690317 21.65429417 55.93534238 30.88820467 56.00439453 40.23217773 C56.01291803 41.91224961 56.02098736 43.59232384 56.02864075 45.2723999 C56.0506981 49.8078397 56.07940108 54.34321452 56.10959578 58.87860656 C56.14045571 63.64767481 56.16596044 68.41677231 56.19229126 73.18586731 C56.23738313 81.19758663 56.28683571 89.2092702 56.33886719 97.22094727 C56.39872476 106.4463234 56.45156556 115.67171945 56.5006355 124.8971588 C56.54822626 133.81121465 56.60098709 142.72523306 56.65599442 151.63924599 C56.67918902 155.41351908 56.70059647 159.1877958 56.72050095 162.96208763 C56.74424344 167.42159158 56.77255674 171.88104514 56.80418968 176.34049988 C56.81500667 177.96407433 56.82433721 179.58765959 56.83195305 181.21125221 C56.88204015 191.62759744 57.28197677 201.96719166 58.04199219 212.35644531 C58.75194336 212.33988892 59.46189453 212.32333252 60.19335938 212.30627441 C63.05945026 212.24339476 65.92546228 212.20656852 68.79199219 212.16894531 C69.80777344 212.14380859 70.82355469 212.11867188 71.87011719 212.09277344 C72.84980469 212.08310547 73.82949219 212.0734375 74.83886719 212.06347656 C75.73959961 212.04776611 76.64033203 212.03205566 77.56835938 212.01586914 C80.54383604 212.42554047 81.87727785 213.30632272 84.04199219 215.35644531 C84.91699219 217.85644531 84.91699219 217.85644531 85.04199219 220.35644531 C83.04199219 223.35644531 83.04199219 223.35644531 80.04199219 224.35644531 C77.6861959 224.43690304 75.32806062 224.45381635 72.97094727 224.4375 C72.26418508 224.4334251 71.55742289 224.4293502 70.82924366 224.42515182 C68.566697 224.40927446 66.30441981 224.38443353 64.04199219 224.35644531 C63.32645046 224.34778946 62.61090874 224.33913361 61.87368393 224.33021545 C52.43037007 224.20738512 42.98850177 223.99928646 33.54696941 223.78139114 C29.17573172 223.68064002 24.80462096 223.58782046 20.43286133 223.51269531 C16.16049387 223.4391081 11.88893473 223.34653921 7.61725807 223.2403183 C5.99825782 223.20330609 4.37908796 223.173062 2.75983238 223.14975739 C0.51017465 223.11611463 -1.73760178 223.05811838 -3.98657227 222.99414062 C-5.2640181 222.96749329 -6.54146393 222.94084595 -7.85762024 222.91339111 C-10.95800781 222.35644531 -10.95800781 222.35644531 -12.90544128 220.45330811 C-13.95800781 218.35644531 -13.95800781 218.35644531 -13.77050781 216.16894531 C-12.95800781 214.35644531 -12.95800781 214.35644531 -10.95800781 213.35644531 C-9.21756612 213.27194903 -7.4739106 213.24921508 -5.73144531 213.25878906 C-4.70019531 213.26201172 -3.66894531 213.26523437 -2.60644531 213.26855469 C-1.52621094 213.27693359 -0.44597656 213.2853125 0.66699219 213.29394531 C2.29894531 213.30071289 2.29894531 213.30071289 3.96386719 213.30761719 C6.65663008 213.31942755 9.34928407 213.33589753 12.04199219 213.35644531 C13.21059877 209.85062558 13.20990505 207.02558404 13.26318359 203.32495117 C13.27468948 202.612155 13.28619537 201.89935883 13.29804993 201.16496277 C13.33481003 198.80044874 13.36445121 196.4359089 13.39355469 194.07128906 C13.41670143 192.41475595 13.44009197 190.75822623 13.4637146 189.10169983 C13.5122304 185.61723192 13.55711726 182.13273974 13.59960938 178.64819336 C13.65380651 174.2342942 13.71779079 169.82060344 13.78478432 165.40688229 C13.83555057 161.97572649 13.88037949 158.5445107 13.92362595 155.11325264 C13.94485982 153.48973572 13.96794405 151.8662417 13.99309158 150.24278069 C14.12411124 141.59037647 14.06626976 132.982476 13.60986328 124.33911133 C13.55054595 123.182176 13.55054595 123.182176 13.49003029 122.00186825 C13.3142052 118.04952372 13.3142052 118.04952372 12.04199219 114.35644531 C6.97427863 114.18709912 1.90638382 114.02675003 -3.16186523 113.87426758 C-4.88134167 113.82132347 -6.6007479 113.76604009 -8.32006836 113.70825195 C-21.04155826 113.28176816 -21.04155826 113.28176816 -33.73217773 114.10961914 C-36.894747 114.46032195 -40.0282187 114.4887051 -43.20800781 114.48144531 C-44.32691406 114.48402344 -45.44582031 114.48660156 -46.59863281 114.48925781 C-53.05955351 114.37257452 -59.5138276 113.81554871 -65.95800781 113.35644531 C-66.72789737 136.88084838 -67.12377779 160.3845411 -66.76193237 183.92129517 C-66.72598003 186.2949027 -66.69499513 188.66859068 -66.66897583 191.04232788 C-66.62988267 194.37928119 -66.5706632 197.71523678 -66.50488281 201.05175781 C-66.49531052 202.05287094 -66.48573822 203.05398407 -66.47587585 204.08543396 C-66.45289932 205.00260696 -66.42992279 205.91977997 -66.40625 206.86474609 C-66.39213074 207.66389435 -66.37801147 208.4630426 -66.36346436 209.28640747 C-65.85963251 211.85869546 -65.01952451 212.78014165 -62.95800781 214.35644531 C-60.83685934 214.50022461 -60.83685934 214.50022461 -58.52050781 214.04394531 C-54.47861289 213.50820077 -50.53734529 213.21803481 -46.45800781 213.16894531 C-44.95753906 213.14767578 -44.95753906 213.14767578 -43.42675781 213.12597656 C-40.95800781 213.35644531 -40.95800781 213.35644531 -38.95800781 215.35644531 C-39.33300781 218.48144531 -39.33300781 218.48144531 -39.95800781 221.35644531 C-43.28275098 222.09363262 -46.40083625 222.49716954 -49.80371094 222.56176758 C-50.74624725 222.58169769 -51.68878357 222.60162781 -52.65988159 222.62216187 C-54.18417282 222.64725327 -54.18417282 222.64725327 -55.73925781 222.67285156 C-56.80967316 222.69376862 -57.8800885 222.71468567 -58.98294067 222.73623657 C-62.47455579 222.80251017 -65.96623876 222.86138933 -69.45800781 222.91894531 C-70.64174988 222.93945953 -71.82549194 222.95997375 -73.04510498 222.98110962 C-87.76372202 223.23461255 -102.48398635 223.46963804 -117.20483398 223.53268433 C-118.78411672 223.54016245 -120.36338776 223.55081855 -121.94262695 223.56472778 C-124.10672113 223.58228747 -126.27041441 223.58675227 -128.43457031 223.58691406 C-130.23015381 223.59307739 -130.23015381 223.59307739 -132.06201172 223.59936523 C-134.95800781 223.35644531 -134.95800781 223.35644531 -137.95800781 221.35644531 C-138.14550781 218.23144531 -138.14550781 218.23144531 -137.95800781 215.35644531 C-132.92861408 212.61607052 -127.75824586 213.17035702 -122.20800781 213.29394531 C-120.29662205 213.32821318 -118.38515702 213.35839119 -116.47363281 213.38378906 C-115.6309082 213.40175537 -114.78818359 213.41972168 -113.91992188 213.43823242 C-111.9539247 213.57804263 -111.9539247 213.57804263 -110.95800781 212.35644531 C-110.8594284 210.58766297 -110.83168665 208.81490789 -110.83102417 207.04338074 C-110.82679443 205.31134148 -110.82679443 205.31134148 -110.82247925 203.54431152 C-110.82450348 202.26439331 -110.82652771 200.9844751 -110.82861328 199.66577148 C-110.8272586 198.31158908 -110.82547829 196.95740704 -110.82330322 195.60322571 C-110.81871477 191.89742321 -110.82052997 188.19164836 -110.82368231 184.48584533 C-110.82622478 180.55968005 -110.82386073 176.63351706 -110.82229614 172.70735168 C-110.82046903 166.05807071 -110.8228835 159.40880078 -110.82763672 152.75952148 C-110.83238638 146.04043852 -110.83254293 139.32137778 -110.82763672 132.60229492 C-110.79950114 93.1742274 -110.96477879 53.77461033 -111.95800781 14.35644531 C-115.37849738 12.92810657 -118.03554851 12.09961467 -121.75097656 12.01269531 C-123.06678711 11.96822266 -123.06678711 11.96822266 -124.40917969 11.92285156 C-126.24511031 11.8782965 -128.08104794 11.83402927 -129.91699219 11.79003906 C-131.22700195 11.74556641 -131.22700195 11.74556641 -132.56347656 11.70019531 C-133.35906982 11.68150391 -134.15466309 11.6628125 -134.97436523 11.64355469 C-136.95800781 11.35644531 -136.95800781 11.35644531 -138.95800781 9.35644531 C-139.27050781 6.35644531 -139.27050781 6.35644531 -138.95800781 3.35644531 C-134.98408257 0.70716182 -131.54096291 1.07630026 -126.9284668 1.09765625 C-125.54274475 1.09239929 -125.54274475 1.09239929 -124.12902832 1.08703613 C-121.07064332 1.07822221 -118.01248898 1.08406634 -114.95410156 1.09082031 C-112.83325659 1.08947368 -110.71241191 1.08753317 -108.59156799 1.08502197 C-104.14540673 1.08207126 -99.69932577 1.08636712 -95.25317383 1.09570312 C-89.54412421 1.10710453 -83.83526249 1.10053344 -78.12621975 1.0885582 C-73.74687779 1.08134411 -69.36758066 1.08362533 -64.98823738 1.08881378 C-62.88261963 1.09015117 -60.77699786 1.08849947 -58.67138481 1.08385468 C-55.73353099 1.07879611 -52.79598508 1.08648994 -49.8581543 1.09765625 C-48.54352959 1.09158356 -48.54352959 1.09158356 -47.2023468 1.08538818 C-41.18653697 1.12791616 -41.18653697 1.12791616 -38.95800781 3.35644531 C-39.14550781 6.85644531 -39.14550781 6.85644531 -39.95800781 10.35644531 C-43.26089117 12.55836755 -44.23263508 12.596045 -48.06347656 12.55175781 C-49.04638672 12.5453125 -50.02929688 12.53886719 -51.04199219 12.53222656 C-52.06615234 12.51546875 -53.0903125 12.49871094 -54.14550781 12.48144531 C-55.18126953 12.47242188 -56.21703125 12.46339844 -57.28417969 12.45410156 C-59.84235466 12.43052391 -62.40006529 12.39761561 -64.95800781 12.35644531 C-66.90635359 17.23765372 -67.23329865 21.65280337 -67.18505859 26.84033203 C-67.18535065 27.67026169 -67.1856427 28.50019135 -67.1859436 29.35527039 C-67.18455684 32.08233307 -67.16902652 34.8091182 -67.15332031 37.53613281 C-67.14958786 39.43327688 -67.14674198 41.33042289 -67.14474487 43.22756958 C-67.13712672 48.20883553 -67.11749386 53.18998394 -67.09533691 58.17120361 C-67.0748393 63.25897634 -67.06573479 68.34676815 -67.05566406 73.43457031 C-67.03424624 83.40858015 -67.00013226 93.38250294 -66.95800781 103.35644531 C-63.50615527 104.50706283 -60.82119368 104.49050945 -57.17919922 104.50170898 C-56.49428909 104.5050676 -55.80937897 104.50842621 -55.10371399 104.5118866 C-52.83898099 104.52138718 -50.574322 104.52333931 -48.30957031 104.52441406 C-46.73399831 104.52762745 -45.1584266 104.53099158 -43.58285522 104.53450012 C-40.27918811 104.54048928 -36.97554716 104.54234026 -33.671875 104.54174805 C-29.44284057 104.54164648 -25.21397424 104.55529417 -20.98497963 104.57252026 C-17.7301456 104.58365057 -14.47535206 104.58566693 -11.22050095 104.58513832 C-9.66161902 104.58631705 -8.102736 104.59073286 -6.54387283 104.59847069 C-4.36099808 104.60829074 -2.17848632 104.60538466 0.00439453 104.59936523 C1.24555023 104.60079025 2.48670593 104.60221527 3.76547241 104.60368347 C7.18997664 104.34527877 10.51618897 103.88224853 13.04199219 101.35644531 C13.14431978 98.22406264 13.18144061 95.11429123 13.17480469 91.98144531 C13.17612396 91.00513657 13.17744324 90.02882782 13.17880249 89.02293396 C13.18073602 85.80073995 13.17434127 82.57863067 13.16699219 79.35644531 C13.16610596 78.26486115 13.16521973 77.17327698 13.16430664 76.0486145 C13.14376004 54.474488 12.70487457 32.91951546 12.04199219 11.35644531 C11.08160034 11.38001099 11.08160034 11.38001099 10.10180664 11.40405273 C7.18612587 11.46661646 4.27058664 11.50550339 1.35449219 11.54394531 C0.34708984 11.56908203 -0.6603125 11.59421875 -1.69824219 11.62011719 C-10.9162308 11.7113844 -10.9162308 11.7113844 -14.95800781 8.35644531 C-14.83300781 6.04394531 -14.83300781 6.04394531 -13.95800781 3.35644531 C-9.36099593 0.39815916 -5.32992336 -0.06820191 0 0 Z " fill="#E3D387" transform="translate(458.9580078125,228.6435546875)"/>
<path d="M0 0 C0.81493423 -0.00708481 1.62986847 -0.01416962 2.46949768 -0.02146912 C3.80632851 -0.01775299 3.80632851 -0.01775299 5.17016602 -0.01396179 C6.11234482 -0.01907272 7.05452362 -0.02418365 8.0252533 -0.02944946 C11.15825687 -0.04340479 14.29104115 -0.04238053 17.42407227 -0.04008484 C19.61954834 -0.04397599 21.81502368 -0.04831152 24.01049805 -0.05307007 C28.63422059 -0.06055036 33.25786689 -0.06023335 37.8815918 -0.05497742 C42.57537521 -0.05038649 47.26889718 -0.05710035 51.96264648 -0.07548523 C125.28814113 -0.3602409 125.28814113 -0.3602409 137.98657227 9.26069641 C139.07969727 9.54944641 140.17282227 9.83819641 141.29907227 10.13569641 C145.56928459 11.43847305 148.75999254 13.16671585 151.98657227 16.26069641 C152.67971135 17.91652866 153.35131651 19.5818062 153.98657227 21.26069641 C156.3772596 22.36706036 156.3772596 22.36706036 158.98657227 23.26069641 C162.93398307 26.16320435 163.95535071 29.50638237 165.27563477 34.04194641 C165.91488181 36.26840923 165.91488181 36.26840923 167.02954102 38.20210266 C170.94826557 46.63135915 169.57981182 59.81048943 167.04907227 68.46772766 C164.46593763 75.22296463 161.09326735 80.18954677 155.98657227 85.26069641 C155.18219727 86.14757141 154.37782227 87.03444641 153.54907227 87.94819641 C147.96852051 92.98430409 142.48638731 95.72227959 135.18579102 97.48725891 C132.90962268 98.10455761 132.90962268 98.10455761 131.44360352 99.84663391 C129.98657227 101.26069641 129.98657227 101.26069641 125.98657227 101.26069641 C128.3195544 104.14638005 129.57541292 105.17444606 133.26391602 105.94819641 C134.47176758 106.05132141 135.67961914 106.15444641 136.92407227 106.26069641 C142.33910811 106.72401499 144.95707577 107.59880311 148.98657227 111.26069641 C150.97722767 112.27917127 152.97905412 113.27587619 154.98657227 114.26069641 C161.60270927 117.72831806 166.21078555 120.71599944 169.98657227 127.26069641 C169.98657227 127.92069641 169.98657227 128.58069641 169.98657227 129.26069641 C170.97657227 129.59069641 171.96657227 129.92069641 172.98657227 130.26069641 C177.77967631 138.79731968 179.54647407 147.46709866 179.54907227 157.19819641 C179.55124756 158.06090149 179.55342285 158.92360657 179.55566406 159.81245422 C179.40291778 165.759834 178.1070598 170.7289898 175.98657227 176.26069641 C175.59469727 177.43632141 175.20282227 178.61194641 174.79907227 179.82319641 C174.53094727 180.62757141 174.26282227 181.43194641 173.98657227 182.26069641 C173.32657227 182.26069641 172.66657227 182.26069641 171.98657227 182.26069641 C171.82157227 183.10632141 171.65657227 183.95194641 171.48657227 184.82319641 C167.95071164 192.92621035 159.40161683 197.06899573 152.08032227 201.40132141 C149.60860794 202.88684669 147.32109957 204.45404539 144.98657227 206.13569641 C140.61142091 208.93353998 135.81981668 209.31252421 130.74438477 209.90132141 C128.03160505 210.10156038 128.03160505 210.10156038 125.98657227 211.26069641 C119.49375429 212.20599549 112.89897707 212.49443663 106.34985352 212.79585266 C104.96080811 212.86045433 104.96080811 212.86045433 103.54370117 212.92636108 C100.46239402 213.06493194 97.38084807 213.19548408 94.29907227 213.32319641 C93.23095306 213.36805176 92.16283386 213.4129071 91.06234741 213.4591217 C58.72189083 214.77055363 26.34615049 214.44583979 -6.01342773 214.26069641 C-6.09344517 211.92873551 -6.08813036 209.59283362 -6.01342773 207.26069641 C-3.08176697 204.21794114 -0.18275211 204.08163444 3.84985352 203.96772766 C5.66649186 203.98754553 7.48301548 204.02314255 9.29907227 204.07319641 C10.23041992 204.08673157 11.16176758 204.10026672 12.12133789 204.11421204 C14.41034873 204.14942759 16.69815685 204.19867542 18.98657227 204.26069641 C20.19059086 198.39224075 20.33155011 192.52004347 20.54077148 186.55195618 C20.58288191 185.37089326 20.62499233 184.18983034 20.66837883 182.97297764 C21.14268344 168.30641013 21.13327162 153.63956353 21.12089777 138.96687007 C21.11831181 134.922442 21.12072786 130.87801584 21.12228394 126.83358765 C21.12408432 120.06929608 21.12175241 113.30501558 21.11694336 106.54072571 C21.11146717 98.74858571 21.11329613 90.95647174 21.11876976 83.16433233 C21.12331748 76.41633919 21.12394445 69.66835385 21.1213311 62.92035967 C21.11978224 58.91414593 21.1195368 54.90794442 21.12286758 50.90173149 C21.12577189 47.1495638 21.12372395 43.39742968 21.11797333 39.64526558 C21.11603954 37.62925893 21.11897502 35.61324941 21.12210083 33.59724426 C21.99852243 22.32253384 21.99852243 22.32253384 18.98657227 12.26069641 C17.39794241 12.19791583 15.80658776 12.20130013 14.21704102 12.23335266 C13.24573242 12.24559875 12.27442383 12.25784485 11.27368164 12.27046204 C9.21892021 12.30542017 7.16422353 12.34443606 5.10961914 12.38764954 C3.64685547 12.40408508 3.64685547 12.40408508 2.15454102 12.42085266 C1.26017334 12.43769104 0.36580566 12.45452942 -0.55566406 12.47187805 C-3.16824459 12.24739388 -4.77230702 11.58370478 -7.01342773 10.26069641 C-7.30639648 4.20600891 -7.30639648 4.20600891 -7.01342773 2.26069641 C-3.97756913 0.23679068 -3.40235771 0.00987955 0 0 Z M63.98657227 11.26069641 C62.09385784 16.03223263 61.72689918 20.27767362 61.81958008 25.34565735 C61.82582901 26.13336014 61.83207794 26.92106293 61.83851624 27.7326355 C61.86188028 30.32034142 61.90028561 32.90756389 61.93969727 35.49507141 C61.96080562 37.29773759 61.98128387 39.10041124 62.00115967 40.90309143 C62.04508619 44.67231682 62.09643498 48.4413483 62.15307617 52.21040344 C62.22520575 57.04818606 62.27909602 61.88597 62.32753372 66.72404099 C62.36669412 70.44207802 62.41527356 74.15994551 62.46675873 77.87783051 C62.49035946 79.66243676 62.51104136 81.44708403 62.52878571 83.23175812 C62.55496032 85.71919068 62.59374712 88.20610908 62.63598633 90.6933136 C62.64393974 91.8045031 62.64393974 91.8045031 62.65205383 92.93814087 C62.61733644 97.05208787 62.61733644 97.05208787 64.98657227 100.26069641 C68.31640549 100.7233446 71.6909229 100.59196798 75.04907227 100.57319641 C76.03536621 100.56973206 77.02166016 100.5662677 78.0378418 100.56269836 C90.09774094 100.38640683 105.14846562 99.79937848 114.88500977 91.91304016 C120.43981309 85.82378415 123.29758119 81.48461117 123.98657227 73.26069641 C124.14899414 72.6251886 124.31141602 71.98968079 124.47875977 71.33491516 C127.57495334 58.68815524 128.61937722 37.56829548 122.69360352 25.66304016 C118.75345084 19.43374993 113.33581964 13.88409191 106.09210205 11.6857605 C103.95207458 11.25373202 102.0415949 11.14026912 99.8605957 11.14717102 C98.65980377 11.14728432 98.65980377 11.14728432 97.43475342 11.1473999 C96.58044739 11.15256119 95.72614136 11.15772247 94.84594727 11.16304016 C93.52267426 11.16516258 93.52267426 11.16516258 92.17266846 11.16732788 C89.36060161 11.1729164 86.54861497 11.1854668 83.73657227 11.19819641 C81.82771925 11.20321289 79.91886498 11.20777554 78.01000977 11.21186829 C73.33549979 11.22288207 68.66104962 11.24013883 63.98657227 11.26069641 Z M64.98657227 108.26069641 C62.84856375 112.60110828 62.696188 116.5937254 62.71191406 121.33638 C62.70680313 122.13541245 62.7016922 122.93444489 62.69642639 123.75769043 C62.68255907 126.39158174 62.68348514 129.0252105 62.68579102 131.65913391 C62.68190223 133.49609982 62.67756718 135.33306483 62.67280579 137.17002869 C62.66534951 141.01831478 62.66563035 144.86650912 62.67089844 148.71479797 C62.6766892 153.63643468 62.65976872 158.55769459 62.63655376 163.47926903 C62.62179175 167.27291546 62.62094814 171.06647169 62.62406349 174.86014175 C62.62355142 176.67415233 62.61833515 178.4881681 62.60825157 180.30215073 C62.59585791 182.84375432 62.60269635 185.38463102 62.61425781 187.92622375 C62.60661407 188.6693129 62.59897034 189.41240204 62.59109497 190.17800903 C62.64259228 195.32289711 63.62657607 198.78095662 65.98657227 203.26069641 C75.48244588 209.32012625 98.90143662 205.32380178 109.67407227 203.38569641 C117.06309575 201.65077367 122.25148654 198.16522219 126.98657227 192.26069641 C129.67283749 187.76440009 130.57306868 183.65387208 131.04907227 178.51069641 C131.53763471 173.92270793 132.07762542 169.45273408 133.11157227 164.94819641 C135.08752901 155.55456076 133.81261815 146.57599803 131.98657227 137.26069641 C131.79579102 136.27714172 131.60500977 135.29358704 131.40844727 134.28022766 C130.94591473 131.93783077 130.47270895 129.59828981 129.98657227 127.26069641 C128.50157227 126.76569641 128.50157227 126.76569641 126.98657227 126.26069641 C126.96594727 125.39444641 126.94532227 124.52819641 126.92407227 123.63569641 C125.5870618 118.82245874 123.14630796 116.88344502 118.98657227 114.26069641 C110.53258756 110.15510593 103.65370488 108.10337442 94.28344727 108.16304016 C93.44565735 108.16445511 92.60786743 108.16587006 91.74468994 108.16732788 C89.07528069 108.17291444 86.40595606 108.18546447 83.73657227 108.19819641 C81.92407348 108.20321315 80.11157337 108.20777575 78.29907227 108.21186829 C73.86153978 108.22287947 69.42407036 108.24013486 64.98657227 108.26069641 Z " fill="#9C7034" transform="translate(1602.013427734375,236.7393035888672)"/>
<path d="M0 0 C1.35871971 0.00607269 1.35871971 0.00607269 2.74488831 0.01226807 C3.69816513 0.00876343 4.65144196 0.00525879 5.63360596 0.00164795 C8.80570134 -0.00719652 11.97757553 -0.00130232 15.14967346 0.00543213 C17.3633478 0.00408426 19.57702186 0.00214271 21.79069519 -0.00036621 C26.44977107 -0.00332276 31.10877052 0.00098982 35.76783752 0.01031494 C41.6847681 0.02159046 47.60151484 0.01522997 53.51843834 0.00317001 C58.10353418 -0.00413706 62.68858819 -0.00171856 67.27368546 0.0034256 C69.45094958 0.00474407 71.62821772 0.00317891 73.80547714 -0.00153351 C119.1482952 -0.0779911 119.1482952 -0.0779911 136.75123596 8.89605713 C139.08028453 10.03470309 141.03693895 10.78513463 143.56373596 11.27105713 C143.56373596 11.93105713 143.56373596 12.59105713 143.56373596 13.27105713 C144.95592346 13.61136963 144.95592346 13.61136963 146.37623596 13.95855713 C150.2504092 15.55380493 150.48318022 16.75011664 152.56373596 20.27105713 C153.87325891 21.22142821 155.20991889 22.13492232 156.56373596 23.02105713 C160.52604401 25.83161567 161.77124696 28.26012533 162.89576721 32.92730713 C163.49355457 35.40531142 163.49355457 35.40531142 165.10670471 37.86090088 C167.17299646 42.6970207 167.0970524 47.12438473 167.06373596 52.33355713 C167.05801575 53.35836182 167.05229553 54.3831665 167.04640198 55.43902588 C166.81113282 65.45182759 165.21864451 73.97578789 157.87623596 81.33355713 C157.00418518 82.06252197 157.00418518 82.06252197 156.11451721 82.80621338 C154.44898424 84.20221 154.44898424 84.20221 153.61842346 86.26324463 C150.17889841 92.8110812 140.13707425 96.10425279 133.50123596 98.27105713 C130.3536464 99.34257698 127.50598711 100.72987796 124.56373596 102.27105713 C124.56373596 102.93105713 124.56373596 103.59105713 124.56373596 104.27105713 C125.73291565 104.44121338 126.90209534 104.61136963 128.10670471 104.78668213 C129.65501063 105.03065761 131.20318092 105.27549484 132.75123596 105.52105713 C133.52016174 105.63062744 134.28908752 105.74019775 135.08131409 105.85308838 C140.00998668 106.65690623 142.7979102 107.80649743 146.56373596 111.27105713 C148.21605911 111.98382398 149.86965104 112.69425232 151.53639221 113.37261963 C158.94111078 116.65409414 164.47810378 120.18929468 168.56373596 127.27105713 C168.56373596 127.93105713 168.56373596 128.59105713 168.56373596 129.27105713 C169.22373596 129.27105713 169.88373596 129.27105713 170.56373596 129.27105713 C177.4511107 144.13513627 180.6568232 158.14294754 175.56373596 174.27105713 C174.90373596 175.26105713 174.24373596 176.25105713 173.56373596 177.27105713 C173.39873596 178.13730713 173.23373596 179.00355713 173.06373596 179.89605713 C172.89873596 180.67980713 172.73373596 181.46355713 172.56373596 182.27105713 C171.90373596 182.60105713 171.24373596 182.93105713 170.56373596 183.27105713 C170.19248596 183.95168213 169.82123596 184.63230713 169.43873596 185.33355713 C163.49531349 194.64491901 155.03460712 199.18860541 145.56373596 204.27105713 C144.97971008 204.62788574 144.3956842 204.98471436 143.79396057 205.35235596 C139.92916241 207.70899223 136.72928477 208.88386472 132.25123596 209.45855713 C128.26889361 209.91689967 128.26889361 209.91689967 124.56373596 211.27105713 C118.07091099 212.21635723 111.47614429 212.50475605 104.92701721 212.80621338 C104.00103226 212.84932648 103.0750473 212.89243958 102.1210022 212.93685913 C99.03965365 213.07554758 95.95806984 213.20611909 92.87623596 213.33355713 C91.80778442 213.37808014 90.73933289 213.42260315 89.63850403 213.46847534 C68.88020495 214.30252603 48.13415486 214.46474232 27.36210251 214.45908737 C24.93367598 214.45855602 22.50525416 214.45973436 20.076828 214.46102905 C16.23646756 214.46198743 12.39617311 214.45633693 8.55583 214.44488144 C7.12572484 214.44099765 5.69561496 214.43856402 4.26550484 214.43762589 C2.30549594 214.43550904 0.34549884 214.4261232 -1.61448669 214.4163208 C-2.71974701 214.412509 -3.82500732 214.4086972 -4.96376038 214.4047699 C-7.43626404 214.27105713 -7.43626404 214.27105713 -8.43626404 213.27105713 C-8.47707187 211.27147349 -8.4788076 209.27060459 -8.43626404 207.27105713 C-2.8827263 203.68247543 1.62245688 204.07447044 7.93873596 204.58355713 C8.8655719 204.6447876 9.79240784 204.70601807 10.74732971 204.769104 C13.02098634 204.92146244 15.29207044 205.09205023 17.56373596 205.27105713 C18.85037828 196.39391162 18.70451684 187.52083503 18.69313049 178.57403564 C18.69448702 176.78287216 18.69626837 174.99170895 18.69844055 173.20054626 C18.7029826 168.35811716 18.70123925 163.51570946 18.69806147 158.67328 C18.69552391 153.60267661 18.69787904 148.53207502 18.69944763 143.46147156 C18.70126408 134.95536979 18.69887555 126.44927672 18.69410706 117.94317627 C18.68865319 108.1006401 18.69043734 98.2581246 18.69593346 88.41558892 C18.70046493 79.96279045 18.70111534 71.50999823 18.69849479 63.05719894 C18.69693378 58.00915846 18.69673372 52.96112771 18.70003128 47.91308784 C18.70291089 43.17461358 18.70093266 38.43616614 18.69513702 33.69769478 C18.69381044 31.95535324 18.69420184 30.21300945 18.69639969 28.47066879 C18.69911482 26.10055758 18.69572572 23.73053346 18.6907196 21.36042786 C18.69406569 20.31614611 18.69406569 20.31614611 18.69747937 19.25076777 C18.72288286 15.63868961 18.72288286 15.63868961 17.56373596 12.27105713 C16.91823792 12.28153076 16.27273987 12.29200439 15.60768127 12.30279541 C12.67640595 12.34442985 9.74519292 12.37040688 6.81373596 12.39605713 C5.79795471 12.41281494 4.78217346 12.42957275 3.73561096 12.44683838 C2.75592346 12.45328369 1.77623596 12.459729 0.76686096 12.46636963 C-0.58423767 12.48208008 -0.58423767 12.48208008 -1.96263123 12.49810791 C-4.5755326 12.25827389 -6.1929107 11.59417777 -8.43626404 10.27105713 C-8.63157654 4.21636963 -8.63157654 4.21636963 -8.43626404 2.27105713 C-5.74276505 -0.42244186 -3.66021831 0.02506125 0 0 Z M8.56373596 7.27105713 C8.56373596 7.93105713 8.56373596 8.59105713 8.56373596 9.27105713 C9.22373596 8.94105713 9.88373596 8.61105713 10.56373596 8.27105713 C9.90373596 7.94105713 9.24373596 7.61105713 8.56373596 7.27105713 Z M61.56373596 11.27105713 C60.50924498 14.72407515 60.43692356 17.89780334 60.43434143 21.49810791 C60.43118927 22.76107697 60.42803711 24.02404602 60.42478943 25.32528687 C60.4265821 26.70564814 60.42863376 28.08600909 60.43092346 29.46636963 C60.43024863 30.89726783 60.42927712 32.32816591 60.42802429 33.75906372 C60.4265491 36.76681605 60.42869173 39.77453872 60.43336487 42.7822876 C60.43899083 46.58343036 60.43573174 50.38450208 60.42992783 54.18564224 C60.36756755 73.26300066 60.36756755 73.26300066 61.00904846 92.32574463 C61.04779083 93.04601837 61.0865332 93.76629211 61.12644958 94.50839233 C61.10632026 97.67057272 61.10632026 97.67057272 62.56373596 100.27105713 C77.80846415 101.52749077 96.63920658 101.43908953 110.56373596 94.27105713 C113.54982467 91.71251893 113.54982467 91.71251893 116.00123596 88.70855713 C116.8455719 87.73789307 117.68990784 86.767229 118.55982971 85.76715088 C125.29136879 77.38225133 123.91001023 63.58090983 123.87940979 53.25836182 C123.87621958 51.00950884 123.89992128 48.76193915 123.92506409 46.51324463 C123.96967321 36.48061852 123.36685996 27.20859819 116.57252502 19.26763916 C109.60071636 12.33819686 101.8727578 10.75219744 92.42311096 10.68511963 C88.71787377 10.70302253 85.01747638 10.79436576 81.31373596 10.89605713 C79.39320513 10.92621235 77.47262838 10.95357828 75.55201721 10.97808838 C70.88810502 11.04360287 66.22643804 11.14681186 61.56373596 11.27105713 Z M63.56373596 108.27105713 C61.04948474 112.04243396 61.27524603 115.02695393 61.28907776 119.39508057 C61.28396683 120.22308167 61.2788559 121.05108276 61.27359009 121.9041748 C61.25967066 124.64633379 61.26065317 127.38824197 61.26295471 130.13043213 C61.25906794 132.03751723 61.25473331 133.94460146 61.24996948 135.85168457 C61.2425014 139.85315757 61.24280199 143.85454237 61.24806213 147.85601807 C61.2538455 152.97500347 61.23695607 158.09362572 61.21371746 163.21255112 C61.19895532 167.15374857 61.19811201 171.0948592 61.20122719 175.03607941 C61.20071483 176.92265795 61.19549308 178.80924146 61.18541527 180.69579315 C61.17302556 183.34058379 61.17985853 185.98467541 61.19142151 188.62945557 C61.18377777 189.40373901 61.17613403 190.17802246 61.16825867 190.97576904 C61.21768917 196.11242492 62.26726653 199.66810462 64.56373596 204.27105713 C71.59742605 205.12547501 78.48159818 205.47116667 85.56373596 205.27105713 C86.20794495 205.25317139 86.85215393 205.23528564 87.5158844 205.21685791 C105.70201782 204.92500536 105.70201782 204.92500536 121.25904846 196.65777588 C121.73084534 196.09703369 122.20264221 195.5362915 122.68873596 194.95855713 C123.40416565 194.12904541 123.40416565 194.12904541 124.13404846 193.28277588 C127.71437075 188.24489069 129.00015108 183.82960059 129.62623596 177.70855713 C129.7778163 176.28255481 129.93149026 174.8567736 130.08717346 173.43121338 C130.16290588 172.72754639 130.23863831 172.02387939 130.31666565 171.29888916 C130.67087025 168.39175137 131.22125046 165.52564501 131.75123596 162.64605713 C133.69237292 150.02090236 130.93868044 138.35806757 127.56373596 126.27105713 C126.90373596 126.27105713 126.24373596 126.27105713 125.56373596 126.27105713 C125.23821513 124.61090088 124.9126943 122.95074463 124.58717346 121.29058838 C121.15804369 114.5239468 112.91433423 111.76405388 106.1643219 109.47076416 C98.97731684 107.3695034 91.6589812 107.48713862 84.23121643 107.65362549 C81.64196568 107.70956763 79.05588091 107.71514466 76.46607971 107.7144165 C74.81370794 107.72912684 73.16135787 107.74659626 71.50904846 107.76715088 C70.3530162 107.77215858 70.3530162 107.77215858 69.17362976 107.77726746 C66.79931788 107.80621211 66.79931788 107.80621211 63.56373596 108.27105713 Z " fill="#EEE293" transform="translate(2241.436264038086,236.72894287109375)"/>
<path d="M0 0 C1.86663079 0.00276538 1.86663079 0.00276538 3.7709713 0.00558662 C4.4628005 0.00387777 5.1546297 0.00216892 5.86742342 0.00040829 C8.19681651 -0.00289863 10.5259246 0.00813661 12.85529137 0.01904488 C14.52058976 0.01960873 16.18588865 0.01929293 17.85118675 0.01815987 C22.3819588 0.01758435 26.91262567 0.02937076 31.4433732 0.04330778 C36.17461716 0.05578207 40.90586334 0.05698303 45.6371212 0.0593586 C54.60085926 0.0655831 63.56454873 0.082007 72.52826536 0.10205758 C82.7312547 0.12438644 92.93424632 0.13540241 103.137254 0.14544845 C124.12971939 0.16637242 145.12214099 0.20156719 166.11456871 0.24609566 C167.42274498 5.34271894 168.44764952 10.13626716 168.93097496 15.39453316 C168.99236153 16.04549461 169.05374809 16.69645607 169.11699486 17.36714363 C169.311137 19.45119661 169.49533472 21.53592621 169.67706871 23.62109566 C169.73982994 24.33141945 169.80259117 25.04174324 169.86725426 25.773592 C170.17953841 29.31642776 170.48474757 32.85976931 170.78302574 36.4038105 C171.06427306 39.66321431 171.37667152 42.91693132 171.70441246 46.17187691 C171.84309891 47.75894577 171.9800266 49.34617009 172.11456871 50.93359566 C172.23167198 51.9716938 172.23167198 51.9716938 172.35114098 53.03076363 C172.6245147 56.81171032 172.19947613 58.13672092 169.83722496 61.17968941 C167.11456871 63.24609566 167.11456871 63.24609566 163.55206871 63.62109566 C160.11456871 62.24609566 160.11456871 62.24609566 159.09503746 60.71875191 C158.47102628 59.23423216 157.88338384 57.73427243 157.31769371 56.22656441 C150.21063369 38.62043845 139.77169754 24.41381014 123.11456871 15.24609566 C122.49299889 14.8939399 121.87142906 14.54178413 121.23102379 14.17895699 C118.79778913 13.10647 116.79654453 12.83895596 114.14972496 12.61328316 C113.19090416 12.52941353 112.23208336 12.4455439 111.24420738 12.35913277 C109.72597374 12.2413044 109.72597374 12.2413044 108.17706871 12.12109566 C107.14106529 12.03545357 106.10506187 11.94981148 105.03766441 11.86157417 C98.61475883 11.35822112 92.29437177 11.10033545 85.85284996 11.25390816 C82.22400529 11.24355482 78.71475987 10.76008058 75.13800621 10.17187691 C73.03753478 10.06193554 73.03753478 10.06193554 71.40363121 11.47656441 C68.9804363 14.80295015 68.98879417 18.28723067 68.98517418 22.29907417 C68.98044594 23.80698273 68.98044594 23.80698273 68.97562218 25.34535408 C68.97764641 26.42763786 68.97967064 27.50992165 68.98175621 28.62500191 C68.98032112 30.30867111 68.98032112 30.30867111 68.97885704 32.02635384 C68.97817641 34.40437056 68.98002256 36.78238914 68.98419762 39.1604023 C68.98951246 42.77039045 68.98426683 46.38025218 68.97784996 49.99023628 C68.97851145 52.30599176 68.97979407 54.62174716 68.98175621 56.93750191 C68.97871986 58.53967316 68.97871986 58.53967316 68.97562218 60.1742115 C68.9939182 66.1371675 69.29013298 71.95897423 69.99814415 77.88194466 C70.11555509 80.26612542 69.71375032 81.95789697 69.11456871 84.24609566 C69.3465879 86.10224916 69.58338464 87.9580804 69.85675621 89.80859566 C70.36380592 94.6025202 70.18678597 99.43161143 70.11456871 104.24609566 C76.54264539 104.48866459 82.92148181 104.11702821 89.11456871 102.24609566 C90.14049728 101.27271465 91.14345675 100.27417229 92.11456871 99.24609566 C93.29019371 98.95734566 94.46581871 98.66859566 95.67706871 98.37109566 C97.37863121 97.81422066 97.37863121 97.81422066 99.11456871 97.24609566 C100.20939594 94.93745362 100.20939594 94.93745362 101.11456871 92.24609566 C102.06024908 90.56020308 103.04056088 88.89333488 104.05206871 87.24609566 C104.55609215 86.42109566 105.06011559 85.59609566 105.57941246 84.74609566 C106.61220716 83.06419081 107.65940772 81.39105633 108.72003746 79.72656441 C110.07422402 77.31785722 110.79402769 75.21881424 111.48956871 72.55859566 C112.7987079 68.45389882 112.7987079 68.45389882 115.48956871 66.68359566 C118.0884432 66.25044991 120.48621944 66.21532903 123.11456871 66.24609566 C124.79667934 75.41608221 125.3989143 84.23813163 125.34503746 93.55078316 C125.34383965 94.88632347 125.34339376 96.22186464 125.34364891 97.55740547 C125.3420994 100.33568915 125.33393247 103.11384119 125.32037926 105.89209175 C125.30342568 109.406862 125.29956515 112.92148818 125.30032444 116.43629456 C125.300049 119.18882748 125.29450836 121.94133055 125.287323 124.69385338 C125.28270844 126.60497111 125.28088319 128.51609495 125.27916527 130.42721748 C125.24523185 136.80021781 125.10525268 143.16645516 124.79157066 149.53174019 C124.73507851 150.76925026 124.67858635 152.00676033 124.62038231 153.28177071 C124.45346382 154.25999794 124.28654533 155.23822517 124.11456871 156.24609566 C120.26425821 158.81296933 118.52887108 158.0789829 114.11456871 157.24609566 C113.71238121 155.73982613 113.71238121 155.73982613 113.30206871 154.20312691 C109.33853044 140.10380962 103.37092226 126.89399194 90.11456871 119.24609566 C83.75746172 116.38539751 78.03069722 115.85625125 71.11456871 116.24609566 C68.8909288 120.69720364 68.83080392 124.86751925 68.85577965 129.73657417 C68.85227501 130.57943977 68.84877037 131.42230537 68.84515953 132.29071236 C68.83637727 135.06889334 68.84217846 137.84681846 68.84894371 140.62500191 C68.84759618 142.55883521 68.84565491 144.49266818 68.84314537 146.42650032 C68.84019896 150.47569192 68.84447671 154.52479519 68.85382652 158.57397652 C68.86522838 163.76487465 68.85865386 168.95556614 68.84668159 174.14645672 C68.83945648 178.13813524 68.8417538 182.12976471 68.84693718 186.1214447 C68.84827147 188.03561553 68.84663366 189.94979082 68.84197807 191.86395645 C68.83690134 194.53776167 68.8446389 197.21123145 68.85577965 199.88501167 C68.85173119 200.6762896 68.84768272 201.46756752 68.84351158 202.28282356 C68.87283524 206.08008059 68.97135582 209.02758663 71.11456871 212.24609566 C106.76638929 213.49388105 106.76638929 213.49388105 138.36456871 199.30859566 C139.60980309 198.335998 139.60980309 198.335998 140.88019371 197.34375191 C143.21894892 195.14810234 144.48882315 192.98926742 146.11456871 190.24609566 C148.01691246 188.57812691 148.01691246 188.57812691 150.05206871 187.05859566 C154.0452831 183.70049946 155.58641211 180.57850224 157.25909996 175.69922066 C158.02946943 173.49012465 158.92823279 171.60193369 160.05206871 169.55859566 C162.41209229 165.05225142 163.83559086 160.21018364 165.27643394 155.34887886 C166.41562047 151.67858429 166.80626667 150.45163035 170.11456871 148.24609566 C175.46002326 147.91882293 175.46002326 147.91882293 178.11456871 149.24609566 C179.79959176 156.94490787 178.7976471 164.76866829 178.23956871 172.55859566 C178.03640692 175.50617524 177.83920707 178.45410929 177.64581871 181.40234566 C177.59704582 182.14213158 177.54827293 182.8819175 177.49802208 183.64412117 C177.18906843 188.52313942 177.00302698 193.38962305 176.89581871 198.27734566 C176.8672982 199.50928658 176.83877769 200.74122749 176.80939293 202.01049995 C176.76375822 204.32941332 176.73348009 206.64869331 176.72052574 208.96801949 C176.69845055 210.00466743 176.67637535 211.04131538 176.65363121 212.10937691 C176.64541344 213.00954536 176.63719566 213.90971382 176.62872887 214.83716011 C175.93451266 218.08969162 174.68139714 219.16601092 172.11456871 221.24609566 C169.48851013 221.75390434 169.48851013 221.75390434 166.44455528 221.76507759 C165.28760155 221.7789904 164.13064781 221.79290321 162.93863487 221.80723763 C161.67234245 221.80220726 160.40605003 221.7971769 159.10138512 221.79199409 C157.75046157 221.80073274 156.39954836 221.81121954 155.04865074 221.82332039 C151.37335492 221.85124835 147.69839537 221.85458258 144.02300882 221.8536005 C140.14788517 221.85674201 136.2729097 221.88241038 132.39786339 221.90558052 C125.02471777 221.94622867 117.65166025 221.96648576 110.27841985 221.97955441 C102.00902208 221.99520614 93.73978505 222.03370327 85.47047734 222.0741477 C71.09791855 222.14366418 56.7252301 222.20825976 42.35249329 222.22250175 C40.99008366 222.22394278 39.62767406 222.22541887 38.26526451 222.22693062 C37.26336265 222.22799997 37.26336265 222.22799997 36.24122036 222.22909093 C32.03822982 222.23597421 27.83577247 222.26224687 23.6329633 222.30154777 C20.83691504 222.32670105 18.04084458 222.34435341 15.24473453 222.36105013 C13.29943308 222.3756001 11.35421867 222.40060371 9.4090271 222.42588615 C7.66097054 222.4349291 7.66097054 222.4349291 5.87759972 222.44415474 C4.34695161 222.45911932 4.34695161 222.45911932 2.78538132 222.47438622 C0.06247607 222.24164298 -1.56387451 221.6443175 -3.88543129 220.24609566 C-4.25033955 214.7724718 -4.25033955 214.7724718 -2.72014809 212.56518745 C-0.18249159 210.74070867 1.55274434 210.90384448 4.65753746 210.95312691 C6.26725426 210.96762886 6.26725426 210.96762886 7.90949059 210.98242378 C9.02904137 211.0075605 10.14859215 211.03269722 11.30206871 211.05859566 C12.43322105 211.07213081 13.5643734 211.08566597 14.72980309 211.09961128 C17.52520188 211.13499608 20.31964764 211.18436617 23.11456871 211.24609566 C24.58054472 208.31414364 24.25184177 205.36585407 24.24155235 202.15240669 C24.24389234 201.04372518 24.24389234 201.04372518 24.2462796 199.91264606 C24.25028518 197.42253898 24.24710148 194.93249231 24.24396324 192.44238472 C24.24531762 190.66187186 24.24709775 188.88135929 24.2492733 187.10084724 C24.25384727 182.25099983 24.25205717 177.4011736 24.24889421 172.5513258 C24.24636572 167.47161552 24.24870996 162.39190708 24.25028038 157.31219673 C24.25210263 148.76753603 24.2496964 140.22288396 24.2449398 131.67822456 C24.23951794 121.82528049 24.24124444 111.97235717 24.24676621 102.11941361 C24.25132076 93.65128218 24.25193583 85.18315697 24.24932754 76.71502471 C24.24777493 71.66202629 24.24754259 66.60903759 24.25086403 61.55603981 C24.25377606 56.79217701 24.25170645 52.02834058 24.24596977 47.26448059 C24.24465901 45.5255729 24.24500727 43.78666295 24.24723244 42.0477562 C24.25882314 32.06026934 23.99685573 22.20228553 23.11456871 12.24609566 C21.94982018 12.27920845 21.94982018 12.27920845 20.76154137 12.31299019 C17.62941183 12.39677257 14.49741061 12.44591284 11.36456871 12.49609566 C9.6978109 12.54636909 9.6978109 12.54636909 7.99738121 12.59765816 C6.92745934 12.61054878 5.85753746 12.62343941 4.75519371 12.63672066 C3.27841148 12.66814156 3.27841148 12.66814156 1.77179527 12.70019722 C-1.63968518 12.11719891 -2.79895665 10.95692741 -4.88543129 8.24609566 C-5.26043129 5.12109566 -5.26043129 5.12109566 -4.88543129 2.24609566 C-2.88543129 0.24609566 -2.88543129 0.24609566 0 0 Z M2.11456871 218.24609566 C1.78456871 218.90609566 1.45456871 219.56609566 1.11456871 220.24609566 C2.10456871 219.91609566 3.09456871 219.58609566 4.11456871 219.24609566 C3.45456871 218.91609566 2.79456871 218.58609566 2.11456871 218.24609566 Z " fill="#AB8546" transform="translate(601.8854312896729,229.75390434265137)"/>
<path d="M0 0 C1.155 0.309375 2.31 0.61875 3.5 0.9375 C8.60933469 2.48854803 11.77291278 5.72488934 15.44921875 9.48046875 C17.23375495 11.22904452 19.13665847 12.78393092 21.0625 14.375 C24.20932833 17.08620182 25.64266436 19.04110437 27 23 C28.31647119 23.69937532 29.65022151 24.36729133 31 25 C31.68486725 26.32407669 32.34870203 27.65909241 33 29 C33.78375 29.78375 34.5675 30.5675 35.375 31.375 C40.01815086 36.01815086 42.51138593 40.98584934 45 47 C46.81370961 50.82502181 48.64917772 54.47376658 51 58 C51.47086668 59.85207562 51.94128485 61.70524835 52.33984375 63.57421875 C53.01207201 66.2429652 53.01207201 66.2429652 54.4921875 69.625 C56.33120913 74.44858063 56.78124367 79.19516113 57.1875 84.3125 C57.26935547 85.18583984 57.35121094 86.05917969 57.43554688 86.95898438 C59.27336857 107.94721695 56.49680952 127.70111351 48 147 C47.70544922 147.67063477 47.41089844 148.34126953 47.10742188 149.03222656 C43.62529038 156.7871749 39.47875094 163.50139498 34 170 C33.38382813 170.80953125 32.76765625 171.6190625 32.1328125 172.453125 C27.33113012 178.73966498 22.06594159 183.93669339 16 189 C15.45504883 189.46116211 14.91009766 189.92232422 14.34863281 190.39746094 C7.30351027 196.32418504 0.92256673 201.31502263 -8 204 C-9.54363048 204.4940309 -11.08652849 204.99035312 -12.62890625 205.48828125 C-16.7192969 206.80101857 -20.8169178 208.08701108 -24.92651367 209.33837891 C-26.61111309 209.87591151 -28.26683203 210.50333192 -29.91015625 211.15625 C-34.49335255 212.40779286 -38.9561728 212.38178355 -43.6875 212.375 C-45.16198608 212.37584595 -45.16198608 212.37584595 -46.66625977 212.37670898 C-52.94334621 212.28142016 -58.11438487 211.58847447 -63.87890625 208.94140625 C-66.21160798 207.78532836 -66.21160798 207.78532836 -69.875 207.5 C-73.64262485 206.89718002 -75.09405165 205.38436788 -78 203 C-78.93457031 202.85304688 -79.86914062 202.70609375 -80.83203125 202.5546875 C-90.63429997 200.83838398 -98.57147462 192.16042196 -105.49609375 185.44824219 C-107.00026392 183.99974585 -108.52874091 182.58112252 -110.0625 181.1640625 C-115.04368052 176.47925446 -118.76774786 172.41682367 -121.10546875 165.921875 C-122.13417736 163.71172375 -123.17652547 162.80729154 -125.125 161.375 C-128.67982957 158.43840166 -128.8482282 156.37673285 -130 152 C-130.79921875 151.10152344 -131.5984375 150.20304688 -132.421875 149.27734375 C-135.43332155 145.79868768 -136.2961457 142.44444862 -137.1875 138 C-137.41469727 137.00033203 -137.41469727 137.00033203 -137.64648438 135.98046875 C-140.29991789 123.80854819 -141.38046831 111.75852228 -141.3125 99.3125 C-141.31067719 98.6161142 -141.30885437 97.91972839 -141.30697632 97.20223999 C-141.22570326 78.69766195 -139.86003931 60.30347469 -129.015625 44.5859375 C-127.81502653 42.85393397 -127.81502653 42.85393397 -127 40 C-126.2575 39.278125 -125.515 38.55625 -124.75 37.8125 C-122.01316251 35.01346165 -120.2521215 32.31055162 -118.25 28.98828125 C-115.19508528 24.12905753 -111.48377162 20.5640236 -107 17 C-106.38125 16.21625 -105.7625 15.4325 -105.125 14.625 C-102.45442607 11.32605573 -99.45521293 8.47651962 -96 6 C-95.34 6 -94.68 6 -94 6 C-94 5.34 -94 4.68 -94 4 C-66.61168138 -9.44454861 -26.85827196 -21.14374601 0 0 Z M-68 4 C-68.6381665 4.24459961 -69.27633301 4.48919922 -69.93383789 4.74121094 C-75.66253862 7.00937367 -78.3350861 10.22885633 -82 15 C-82.53882812 15.63550781 -83.07765625 16.27101562 -83.6328125 16.92578125 C-90.63280445 25.98355978 -92.22824307 38.84283458 -92.82421875 49.99609375 C-93 52 -93 52 -94 54 C-95.02206211 61.27149917 -95.14827467 68.58397056 -95.1328125 75.9140625 C-95.13422241 76.91901764 -95.13563232 77.92397278 -95.13708496 78.9593811 C-95.13919901 82.18129127 -95.13297233 85.40310001 -95.125 88.625 C-95.1234491 89.7243689 -95.12189819 90.82373779 -95.12030029 91.9564209 C-95.08624471 115.49318113 -95.08624471 115.49318113 -94 139 C-93.93554688 139.94133789 -93.87109375 140.88267578 -93.8046875 141.85253906 C-92.77724518 156.68642558 -92.77724518 156.68642558 -89 171 C-88.38318359 172.72476563 -88.38318359 172.72476563 -87.75390625 174.484375 C-84.8294424 181.99763173 -81.64970971 188.17746278 -75 193 C-74.34 193 -73.68 193 -73 193 C-72.67 193.99 -72.34 194.98 -72 196 C-69.36821272 197.10202887 -69.36821272 197.10202887 -66 198 C-65.41009277 198.24371338 -64.82018555 198.48742676 -64.21240234 198.73852539 C-56.970557 201.62095298 -49.8297184 201.47933213 -42.125 201.4375 C-40.82691406 201.45748047 -39.52882813 201.47746094 -38.19140625 201.49804688 C-26.57905104 201.49218797 -17.5472331 199.35144671 -8.875 191.4375 C-8.31296875 190.95603516 -7.7509375 190.47457031 -7.171875 189.97851562 C-4.58791071 187.70974504 -3.10464005 186.31392015 -2 183 C-1.34 183 -0.68 183 0 183 C5.00434852 172.83849843 5.71557655 162.92876241 6.32714844 151.73876953 C6.73119986 144.43781164 7.42899365 137.33637779 8.625 130.125 C10.7725634 116.7033811 10.75422549 103.02673243 9.21875 89.52734375 C8.95896262 86.52587168 8.97213821 83.57505608 9 80.5625 C9.04677251 66.14097531 8.12242253 52.35892865 5.625 38.125 C5.41593018 36.91827637 5.20686035 35.71155273 4.99145508 34.46826172 C3.95415029 28.85866307 2.99887054 23.89289404 0 19 C-0.66 19 -1.32 19 -2 19 C-2.2784375 18.42121094 -2.556875 17.84242188 -2.84375 17.24609375 C-6.49090715 10.16124456 -10.39207071 6.23174774 -17.73046875 3.0078125 C-20 2 -20 2 -23 0 C-39.49404936 -3.64534242 -52.65985315 -2.31983808 -68 4 Z " fill="#D4BE75" transform="translate(2610,239)"/>
<path d="M0 0 C2.46066447 -0.00748557 4.92132139 -0.01814813 7.38195801 -0.03204346 C10.77117033 -0.04962831 14.1601255 -0.05406848 17.54937744 -0.05422974 C18.55125595 -0.06136993 19.55313446 -0.06851013 20.58537292 -0.0758667 C21.49267654 -0.07283539 22.39998016 -0.06980408 23.33477783 -0.06668091 C24.12308487 -0.06810593 24.91139191 -0.06953094 25.72358704 -0.07099915 C27.63922119 0.17623901 27.63922119 0.17623901 29.63922119 2.17623901 C31.23260413 9.7938389 30.87073107 17.99171911 31.07672119 25.73873901 C31.31848668 33.74728601 31.63501234 41.66924426 32.70172119 49.61373901 C34.6409045 64.44627091 34.6409045 64.44627091 33.63922119 70.17623901 C31.57392427 72.72444461 30.34477519 73.95914548 27.20172119 74.92623901 C23.71996831 73.90718939 22.68139602 71.8973735 20.94390869 68.83248901 C19.44656282 65.78400041 18.13301823 62.6863519 16.82672119 59.55123901 C11.26873568 46.2604041 3.98916517 29.7203292 -9.36077881 23.17623901 C-9.85577881 22.49561401 -10.35077881 21.81498901 -10.86077881 21.11373901 C-13.1229313 18.19179205 -15.95815575 17.46688914 -19.36077881 16.17623901 C-20.53640381 15.68123901 -20.53640381 15.68123901 -21.73577881 15.17623901 C-28.29821095 12.67626486 -34.34079166 10.81441966 -41.36077881 10.17623901 C-43.19936535 13.32114661 -43.61024783 15.60570765 -43.60801697 19.23109436 C-43.61221146 20.25332596 -43.61640594 21.27555756 -43.62072754 22.32876587 C-43.61510803 23.44656433 -43.60948853 24.56436279 -43.60369873 25.71603394 C-43.60654625 27.49150352 -43.60654625 27.49150352 -43.60945129 29.30284119 C-43.61253091 32.56725655 -43.60660074 35.83150645 -43.59649825 39.09590316 C-43.58761894 42.58087582 -43.58947789 46.06584535 -43.58985901 49.55082703 C-43.58891899 55.46854859 -43.58023316 61.38621934 -43.56658936 67.30392456 C-43.55295777 73.23459891 -43.54555432 79.16522648 -43.54608154 85.09591675 C-43.5495073 127.13110861 -43.13286087 169.14811227 -42.36077881 211.17623901 C-41.61916504 211.16052856 -40.87755127 211.14481812 -40.11346436 211.12863159 C-36.75847985 211.06633187 -33.40361695 211.02726395 -30.04827881 210.98873901 C-28.88103271 210.96360229 -27.71378662 210.93846558 -26.51116943 210.91256714 C-24.83377686 210.89806519 -24.83377686 210.89806519 -23.12249756 210.88327026 C-21.57501831 210.85970459 -21.57501831 210.85970459 -19.99627686 210.83566284 C-17.36077881 211.17623901 -17.36077881 211.17623901 -15.52801514 212.54220581 C-14.36077881 214.17623901 -14.36077881 214.17623901 -13.92327881 216.61373901 C-14.36077881 219.17623901 -14.36077881 219.17623901 -15.73577881 221.61373901 C-19.40600906 223.79839988 -21.43490432 222.7655767 -25.45062256 221.76608276 C-32.19272989 220.39956168 -39.18599292 220.91807126 -45.9833374 221.68063354 C-50.96217151 222.18582828 -55.8677712 222.30609963 -60.86859131 222.27389526 C-61.72008759 222.27248032 -62.57158386 222.27106537 -63.44888306 222.26960754 C-66.1278864 222.2640782 -68.80680138 222.25153975 -71.48577881 222.23873901 C-73.31911092 222.23371485 -75.15244437 222.22915357 -76.98577881 222.22506714 C-81.4441454 222.21413208 -85.9024472 222.19691773 -90.36077881 222.17623901 C-90.36077881 221.51623901 -90.36077881 220.85623901 -90.36077881 220.17623901 C-91.68077881 220.17623901 -93.00077881 220.17623901 -94.36077881 220.17623901 C-94.69077881 221.16623901 -95.02077881 222.15623901 -95.36077881 223.17623901 C-97.01077881 223.17623901 -98.66077881 223.17623901 -100.36077881 223.17623901 C-100.69077881 222.18623901 -101.02077881 221.19623901 -101.36077881 220.17623901 C-101.69077881 221.16623901 -102.02077881 222.15623901 -102.36077881 223.17623901 C-112.35640244 223.80643595 -112.35640244 223.80643595 -116.54827881 221.17623901 C-117.14640381 220.51623901 -117.74452881 219.85623901 -118.36077881 219.17623901 C-118.17327881 216.80123901 -118.17327881 216.80123901 -117.36077881 214.17623901 C-113.70608398 212.26677053 -110.48688394 211.88781148 -106.40374756 211.76217651 C-105.29193115 211.72350464 -104.18011475 211.68483276 -103.03460693 211.64498901 C-101.30887451 211.59858276 -101.30887451 211.59858276 -99.54827881 211.55123901 C-98.37845459 211.51256714 -97.20863037 211.47389526 -96.00335693 211.43405151 C-93.12265317 211.33998772 -90.24195227 211.25434024 -87.36077881 211.17623901 C-87.37330688 209.89396927 -87.38583496 208.61169952 -87.39874268 207.29057312 C-87.54567698 192.19161831 -87.68646579 177.09261038 -87.82413864 161.99356842 C-87.86052883 158.00772222 -87.89755998 154.02188204 -87.93453979 150.03604126 C-88.178622 123.53724275 -88.41501812 97.0396918 -88.35687256 70.53952026 C-88.3551215 69.62479006 -88.35337044 68.71005985 -88.35156631 67.76761055 C-88.33484253 59.35708846 -88.30855867 50.94678276 -88.25059414 42.53643703 C-88.23166789 39.55533305 -88.220253 36.57423085 -88.21046638 33.59308434 C-88.20099764 31.6064963 -88.18058135 29.61996963 -88.15971375 27.63346863 C-88.15637527 26.46245102 -88.1530368 25.29143341 -88.14959717 24.08493042 C-88.14213974 23.08023712 -88.13468231 22.07554382 -88.1269989 21.04040527 C-88.38853935 17.8361293 -89.23506176 15.17728081 -90.36077881 12.17623901 C-100.72250304 12.61462044 -100.72250304 12.61462044 -110.36077881 16.17623901 C-111.2205835 16.58487183 -112.08038818 16.99350464 -112.96624756 17.41452026 C-117.96356128 19.40995191 -117.96356128 19.40995191 -121.36077881 23.17623901 C-122.10327881 23.44436401 -122.84577881 23.71248901 -123.61077881 23.98873901 C-132.70155615 27.91430196 -138.31596831 39.02700161 -142.98577881 47.23873901 C-143.56827393 48.26064331 -144.15076904 49.28254761 -144.75091553 50.3354187 C-148.33302217 56.80969915 -150.90171452 62.46827892 -151.86859131 69.84811401 C-152.44674626 72.58287869 -153.1008671 73.55822711 -155.36077881 75.17623901 C-159.72784789 75.5661559 -161.66591778 75.6394797 -165.36077881 73.17623901 C-165.64665692 70.56644854 -165.73184598 68.22114968 -165.67327881 65.61373901 C-165.67650146 64.95438354 -165.67972412 64.29502808 -165.68304443 63.61569214 C-165.63087874 58.44180408 -165.03474505 53.37291638 -164.38031006 48.24655151 C-163.22271377 39.04099917 -162.9225306 29.88226918 -162.73577881 20.61373901 C-162.69744063 19.00499763 -162.6583809 17.39627328 -162.61859131 15.78756714 C-162.52438805 11.91726884 -162.43976486 8.04687652 -162.36077881 4.17623901 C-156.99791582 3.90782237 -151.63495607 3.64144469 -146.27191162 3.37667847 C-144.46101375 3.2870222 -142.65013986 3.19687998 -140.83929443 3.10617065 C-115.14208128 1.81987279 -89.46297621 0.97330938 -63.73577881 0.61373901 C-62.28949968 0.59303423 -60.84322079 0.57231261 -59.39694214 0.55157471 C-39.59887424 0.2707494 -19.80008768 0.05489799 0 0 Z M-159.36077881 5.17623901 C-158.36077881 7.17623901 -158.36077881 7.17623901 -158.36077881 7.17623901 Z M-115.36077881 215.17623901 C-115.03077881 215.83623901 -114.70077881 216.49623901 -114.36077881 217.17623901 C-114.03077881 216.51623901 -113.70077881 215.85623901 -113.36077881 215.17623901 C-114.02077881 215.17623901 -114.68077881 215.17623901 -115.36077881 215.17623901 Z " fill="#AC8546" transform="translate(234.36077880859375,229.82376098632813)"/>
<path d="M0 0 C14.4494452 -0.41960673 28.3547406 2.2406261 40.0703125 11.15625 C44.91315983 13.24747953 48.88948063 13.33489937 54.0703125 13.15625 C54.2765625 12.3725 54.4828125 11.58875 54.6953125 10.78125 C56.0703125 8.15625 56.0703125 8.15625 58.8203125 6.84375 C62.09364929 6.15131337 64.74287017 5.78653419 68.0703125 6.15625 C70.15346299 7.72642507 70.96445702 8.65004445 71.50268555 11.22387695 C71.52886963 12.02269287 71.55505371 12.82150879 71.58203125 13.64453125 C71.61772217 14.56451904 71.65341309 15.48450684 71.69018555 16.43237305 C71.71250244 17.43437744 71.73481934 18.43638184 71.7578125 19.46875 C71.78979736 20.50878174 71.82178223 21.54881348 71.85473633 22.62036133 C71.95040467 26.13224039 72.01477512 29.6435108 72.0703125 33.15625 C72.09222656 34.47206055 72.11414062 35.78787109 72.13671875 37.14355469 C72.18858483 40.54343602 72.22291468 43.94314882 72.24453735 47.34335327 C72.25763654 49.31723551 72.27757546 51.29106852 72.29760742 53.26489258 C72.29865479 54.48072021 72.29970215 55.69654785 72.30078125 56.94921875 C72.30489014 58.0271167 72.30899902 59.10501465 72.31323242 60.21557617 C72.063758 63.2355957 71.34534509 65.42394708 70.0703125 68.15625 C64.95709795 68.74830642 64.95709795 68.74830642 62.0703125 68.15625 C59.99557386 65.7623208 58.82575183 64.03752939 57.4453125 61.28125 C56.69017042 59.90100542 55.93496193 58.52079717 55.1796875 57.140625 C54.82197266 56.46064453 54.46425781 55.78066406 54.09570312 55.08007812 C52.7231524 52.50491153 51.2185039 50.01963199 49.6953125 47.53125 C48.31596464 45.2323369 46.93835431 42.93298915 45.57421875 40.625 C41.31576113 33.63449294 36.37428781 28.34402848 30.0703125 23.15625 C29.54308594 22.68058594 29.01585938 22.20492187 28.47265625 21.71484375 C24.93804617 18.55725875 21.4829682 16.83001595 17.0703125 15.15625 C16.40644531 14.888125 15.74257812 14.62 15.05859375 14.34375 C11.07660994 12.76612594 7.34905612 11.69109295 3.0703125 11.15625 C3.0703125 11.81625 3.0703125 12.47625 3.0703125 13.15625 C-3.6796875 13.28125 -3.6796875 13.28125 -5.9296875 12.15625 C-12.71632273 12.09421494 -17.29216124 13.50843889 -22.9296875 17.15625 C-23.7753125 17.445 -24.6209375 17.73375 -25.4921875 18.03125 C-31.39416402 20.75523916 -34.49936556 25.59439556 -36.97265625 31.421875 C-37.9296875 33.15625 -37.9296875 33.15625 -40.9296875 35.15625 C-41.66172494 38.16543679 -41.66172494 38.16543679 -41.9921875 41.59375 C-42.72629767 47.85116525 -42.72629767 47.85116525 -44.9296875 51.15625 C-45.29648945 53.70085801 -45.56040749 56.16832599 -45.74609375 58.7265625 C-45.80748032 59.48105682 -45.86886688 60.23555115 -45.93211365 61.01290894 C-46.12694012 63.43512215 -46.30952169 65.8580927 -46.4921875 68.28125 C-46.61838355 69.85813369 -46.74532954 71.43495755 -46.87304688 73.01171875 C-49.01469594 99.82398491 -49.12131179 126.29086497 -47.9296875 153.15625 C-47.86491211 154.69659912 -47.86491211 154.69659912 -47.79882812 156.26806641 C-47.31291607 166.41412142 -45.83292533 175.77128366 -42.7421875 185.46875 C-42.47519043 186.32291504 -42.20819336 187.17708008 -41.93310547 188.05712891 C-38.96722133 196.56022936 -33.71229897 202.61639331 -25.9296875 207.15625 C-24.8571875 207.8575 -23.7846875 208.55875 -22.6796875 209.28125 C-12.03389495 215.21146628 6.7338072 215.70711663 18.2578125 212.55859375 C21.53890269 211.20797257 24.26521948 209.29346373 27.0703125 207.15625 C27.7303125 207.15625 28.3903125 207.15625 29.0703125 207.15625 C29.76197936 205.08124941 30.4528893 203.00599434 31.140625 200.9296875 C31.78975132 198.99321823 32.45229995 197.06121932 33.125 195.1328125 C33.65480469 193.59753906 33.65480469 193.59753906 34.1953125 192.03125 C34.52789063 191.07992187 34.86046875 190.12859375 35.203125 189.1484375 C36.81531829 183.58564443 37.19455611 178.11711259 37.16796875 172.34765625 C37.16422241 170.66845093 37.16422241 170.66845093 37.16040039 168.95532227 C37.15129639 167.55725342 37.14219238 166.15918457 37.1328125 164.71875 C37.101875 158.0053125 37.101875 158.0053125 37.0703125 151.15625 C27.5003125 150.82625 17.9303125 150.49625 8.0703125 150.15625 C7.7403125 148.17625 7.4103125 146.19625 7.0703125 144.15625 C17.38549461 133.84106789 49.83574976 138.9710901 64.04160309 138.97062778 C65.19470097 138.97078593 65.19470097 138.97078593 66.37109375 138.97094727 C70.32759136 138.97105043 74.28391566 138.95720327 78.2403717 138.94017506 C81.30461455 138.92909947 84.36881413 138.92702639 87.43307495 138.92755699 C88.8939577 138.92637769 90.35484159 138.9219587 91.81570435 138.91422462 C93.83935238 138.90448072 95.8630529 138.90855241 97.88671875 138.91333008 C99.03599854 138.91190506 100.18527832 138.91048004 101.36938477 138.90901184 C104.0703125 139.15625 104.0703125 139.15625 106.0703125 141.15625 C106.40902218 147.47883065 106.40902218 147.47883065 105.0703125 150.15625 C99.1303125 150.48625 93.1903125 150.81625 87.0703125 151.15625 C86.76738281 152.73792969 86.46445313 154.31960938 86.15234375 155.94921875 C82.15039566 176.35010276 78.23308436 189.91911389 61.796875 203.68359375 C60.04589276 205.12371683 60.04589276 205.12371683 58.53125 206.78515625 C56.38781975 208.79677127 53.83257868 209.23549461 51.0703125 210.15625 C50.58618896 210.6409375 50.10206543 211.125625 49.60327148 211.625 C39.23587859 221.98083504 13.58963966 222.40255263 -0.1171875 222.46875 C-6.51237958 222.399897 -12.87912282 222.04894833 -19.2421875 221.40625 C-19.91725342 221.34477783 -20.59231934 221.28330566 -21.2878418 221.2199707 C-26.40027962 220.59995028 -29.60818916 218.75435563 -33.9296875 216.15625 C-35.693125 215.9396875 -35.693125 215.9396875 -37.4921875 215.71875 C-41.88288995 215.00027142 -43.65010746 213.08693855 -46.9296875 210.15625 C-47.8578125 209.7025 -48.7859375 209.24875 -49.7421875 208.78125 C-54.50706055 206.35209903 -60.54650502 203.01305382 -62.9453125 198.05859375 C-63.76981565 196.00365147 -63.76981565 196.00365147 -65.80981445 195.23168945 C-71.93667625 192.12345195 -75.88874804 184.53047684 -79.4921875 178.90625 C-79.97252441 178.15682129 -80.45286133 177.40739258 -80.94775391 176.63525391 C-87.39266924 166.42145939 -91.46954548 155.67816622 -94.9296875 144.15625 C-95.41501953 142.57650391 -95.41501953 142.57650391 -95.91015625 140.96484375 C-103.11065072 113.41365599 -97.0284041 79.37005876 -82.94873047 54.88769531 C-72.10227505 36.45859569 -55.28072491 17.07054233 -34.9296875 9.15625 C-33.65305175 8.52196361 -32.38247328 7.87538533 -31.1171875 7.21875 C-29.72443027 6.5250395 -28.3284271 5.83781766 -26.9296875 5.15625 C-26.17945312 4.79015625 -25.42921875 4.4240625 -24.65625 4.046875 C-16.53432791 0.41960882 -8.76960875 0.3486922 0 0 Z M-20.9296875 7.15625 C-20.5996875 7.81625 -20.2696875 8.47625 -19.9296875 9.15625 C-19.2696875 8.82625 -18.6096875 8.49625 -17.9296875 8.15625 C-18.9196875 7.82625 -19.9096875 7.49625 -20.9296875 7.15625 Z " fill="#D0B770" transform="translate(2076.9296875,229.84375)"/>
<path d="M0 0 C1.42087418 -0.00218285 1.42087418 -0.00218285 2.87045288 -0.00440979 C4.87606884 -0.00275048 6.88169749 0.00881431 8.88720703 0.02954102 C11.92927451 0.05829447 14.96957607 0.05019014 18.01171875 0.03710938 C19.96615418 0.04335361 21.92058416 0.05174988 23.875 0.0625 C25.22242783 0.05809654 25.22242783 0.05809654 26.59707642 0.05360413 C32.79790844 0.1442962 38.60985873 0.99690168 44.3359375 3.49609375 C45.604375 4.82640625 45.604375 4.82640625 46.8984375 6.18359375 C50.0739772 9.19628526 52.02277283 9.02255334 56.25 8.96484375 C58.81159707 8.38920396 59.57105739 7.38770727 61.3359375 5.49609375 C65.36014196 3.45031617 69.79574139 1.71777442 74.3359375 2.49609375 C75.92700195 3.5168457 75.92700195 3.5168457 77.3359375 5.49609375 C77.73811282 8.23901561 77.96465368 10.78307804 78.06640625 13.5390625 C78.12662712 14.74094963 78.12662712 14.74094963 78.18806458 15.96711731 C78.31310035 18.53884779 78.41806423 21.11099093 78.5234375 23.68359375 C78.60490673 25.36529358 78.68757712 27.04693568 78.77148438 28.72851562 C79.0079893 33.64979643 79.18427564 38.5715366 79.3359375 43.49609375 C79.37633148 44.67440765 79.37633148 44.67440765 79.4175415 45.87652588 C79.4876407 48.09999754 79.53513692 50.32266629 79.57421875 52.546875 C79.60169189 53.81829346 79.62916504 55.08971191 79.6574707 56.3996582 C79.3359375 59.49609375 79.3359375 59.49609375 77.99291992 61.38745117 C76.3359375 62.49609375 76.3359375 62.49609375 73.5859375 63.18359375 C67.90942128 61.98279224 65.1829548 57.23829121 62.0625 52.60546875 C60.7962931 50.58293693 59.56724342 48.54006158 58.3359375 46.49609375 C54.17562679 39.75134759 50.27357079 33.97605092 44.0625 29 C42.3359375 27.49609375 42.3359375 27.49609375 40.4609375 24.55859375 C36.40403712 18.71188438 30.19228963 13.62683703 23.3359375 11.49609375 C20.47207593 11.21881808 17.63707268 11.12075542 14.76171875 11.03515625 C12.3359375 10.49609375 12.3359375 10.49609375 11.00390625 8.45703125 C10.67326172 7.48636719 10.67326172 7.48636719 10.3359375 6.49609375 C9.52189453 6.94662109 9.52189453 6.94662109 8.69140625 7.40625 C7.61826172 7.97666016 7.61826172 7.97666016 6.5234375 8.55859375 C5.81574219 8.94144531 5.10804688 9.32429687 4.37890625 9.71875 C2.3359375 10.49609375 2.3359375 10.49609375 -0.6640625 9.49609375 C-3.27626656 10.7279358 -5.72772357 12.0033217 -8.2265625 13.43359375 C-15.43597402 17.49609375 -15.43597402 17.49609375 -17.6640625 17.49609375 C-17.8909375 18.42421875 -18.1178125 19.35234375 -18.3515625 20.30859375 C-19.6640625 23.49609375 -19.6640625 23.49609375 -22.0390625 24.74609375 C-26.41387945 27.66263839 -27.55196157 31.46772343 -28.6640625 36.49609375 C-28.9772283 39.54060378 -29.07489828 42.56160946 -29.1015625 45.62109375 C-29.1116333 46.37269775 -29.1217041 47.12430176 -29.13208008 47.89868164 C-29.03429764 54.23373557 -27.89892217 60.06967468 -23.4765625 64.87109375 C-22.8784375 65.40734375 -22.2803125 65.94359375 -21.6640625 66.49609375 C-21.6640625 67.15609375 -21.6640625 67.81609375 -21.6640625 68.49609375 C-21.1071875 68.74359375 -20.5503125 68.99109375 -19.9765625 69.24609375 C-17.6640625 70.49609375 -17.6640625 70.49609375 -15.4765625 72.43359375 C-7.54789308 78.24795132 3.10634292 78.71510419 12.5859375 80.05859375 C14.02485086 80.26811745 15.46365399 80.47839959 16.90234375 80.68945312 C19.7115997 81.10058671 22.52114206 81.50963829 25.33105469 81.91625977 C25.99955444 82.01311066 26.6680542 82.10996155 27.35681152 82.20974731 C29.28106061 82.48815398 31.20546948 82.76545553 33.12988281 83.04272461 C34.28069336 83.21296143 35.43150391 83.38319824 36.6171875 83.55859375 C37.62330078 83.70554687 38.62941406 83.8525 39.66601562 84.00390625 C42.77962542 84.57788552 45.55518044 85.495522 48.4609375 86.73046875 C50.47431797 87.55259911 52.49179025 88.10022416 54.5859375 88.68359375 C65.83786481 92.39536943 78.57829732 101.9073302 84.3359375 112.49609375 C85.53387796 115.44487028 86.43712269 118.44525949 87.3359375 121.49609375 C87.85284126 122.99745242 88.37365802 124.49746976 88.8984375 125.99609375 C89.38636681 127.49326631 89.86580024 128.99323925 90.3359375 130.49609375 C90.64917969 131.48802734 90.64917969 131.48802734 90.96875 132.5 C93.93896285 143.52325471 92.72323515 155.00422695 90.6484375 166.05859375 C90.50003418 166.89108643 90.35163086 167.7235791 90.19873047 168.58129883 C89.0083417 174.34531718 86.96728642 177.87809214 83.3359375 182.49609375 C82.65065705 184.15519379 81.97701887 185.81941939 81.3359375 187.49609375 C80.6759375 187.82609375 80.0159375 188.15609375 79.3359375 188.49609375 C78.32242086 190.15457552 77.32472955 191.82275336 76.3359375 193.49609375 C74.2734375 196.30859375 74.2734375 196.30859375 72.3359375 198.49609375 C71.6759375 198.49609375 71.0159375 198.49609375 70.3359375 198.49609375 C70.0884375 199.11484375 69.8409375 199.73359375 69.5859375 200.37109375 C68.08591441 202.921133 66.9662126 203.25831723 64.3359375 204.49609375 C63.7378125 205.13546875 63.1396875 205.77484375 62.5234375 206.43359375 C60.45845228 208.38057982 59.21085951 209.09089551 56.6484375 210.12109375 C53.25906024 211.10432011 53.25906024 211.10432011 52.3359375 213.49609375 C50.4453125 213.875 50.4453125 213.875 48.0859375 214.05859375 C44.77306777 214.35448004 41.58648049 214.76210017 38.3359375 215.49609375 C38.3359375 216.48609375 38.3359375 217.47609375 38.3359375 218.49609375 C33.52684544 220.90063978 26.27821089 219.85134586 20.93847656 219.90112305 C19.23188689 219.92241539 17.52539729 219.95616118 15.81933594 220.00366211 C6.14212934 220.27015516 -2.53562226 219.76093293 -11.7890625 216.71875 C-12.55347656 216.46830429 -13.31789063 216.21785858 -14.10546875 215.95982361 C-19.30464028 214.06472708 -19.30464028 214.06472708 -21.0234375 211.34545898 C-21.23484375 210.73516846 -21.44625 210.12487793 -21.6640625 209.49609375 C-25.98912093 207.84239494 -30.21093258 208.76607245 -34.6640625 209.49609375 C-36.81519493 210.31445045 -36.81519493 210.31445045 -37.5546875 212.37890625 C-39.49027659 216.0728826 -42.86301824 217.9658032 -46.6640625 219.49609375 C-50.1015625 218.93359375 -50.1015625 218.93359375 -52.6640625 217.49609375 C-53.92157329 214.98107217 -53.87027711 213.1141436 -53.97705078 210.29956055 C-54.02024445 209.21470871 -54.06343811 208.12985687 -54.10794067 207.01213074 C-54.149664 205.83508072 -54.19138733 204.6580307 -54.234375 203.4453125 C-54.27972382 202.23921829 -54.32507263 201.03312408 -54.37179565 199.79048157 C-54.46650121 197.23418556 -54.55880902 194.67779978 -54.64892578 192.12133789 C-54.78811855 188.21011822 -54.93849108 184.29943759 -55.08984375 180.38867188 C-55.18036769 177.90757681 -55.27023305 175.42645761 -55.359375 172.9453125 C-55.40514679 171.77433517 -55.45091858 170.60335785 -55.49807739 169.39689636 C-55.53496674 168.30258804 -55.57185608 167.20827972 -55.60986328 166.08081055 C-55.64459747 165.12087692 -55.67933167 164.1609433 -55.71511841 163.17192078 C-55.66339894 160.4613168 -55.40465946 158.10479986 -54.6640625 155.49609375 C-51.40851876 153.86832188 -48.15403862 153.65529644 -44.6640625 154.49609375 C-42.4355558 156.52781108 -40.94544092 158.7731646 -39.6640625 161.49609375 C-39.6640625 162.15609375 -39.6640625 162.81609375 -39.6640625 163.49609375 C-39.0040625 163.49609375 -38.3440625 163.49609375 -37.6640625 163.49609375 C-37.2928125 164.30046875 -36.9215625 165.10484375 -36.5390625 165.93359375 C-31.6766826 175.63552548 -24.65225444 184.41019594 -17.4609375 192.4765625 C-16.22788544 193.86240579 -15.00981112 195.26167783 -13.8046875 196.671875 C-13.20140625 197.37699219 -12.598125 198.08210937 -11.9765625 198.80859375 C-11.43644531 199.44410156 -10.89632812 200.07960938 -10.33984375 200.734375 C-6.42345462 204.8516046 -3.27103606 206.04008825 2.3359375 207.12109375 C3.5528125 207.36085938 4.7696875 207.600625 6.0234375 207.84765625 C7.1165625 208.06164062 8.2096875 208.275625 9.3359375 208.49609375 C10.00753906 208.68558594 10.67914062 208.87507812 11.37109375 209.0703125 C14.18370502 209.6798048 16.89901616 209.6669786 19.7734375 209.68359375 C20.88589844 209.69777344 21.99835937 209.71195313 23.14453125 209.7265625 C26.33376216 209.49625084 28.42326203 208.73192111 31.3359375 207.49609375 C32.70874678 207.40802674 34.08531628 207.36586325 35.4609375 207.37109375 C43.3775464 206.66827922 50.16028099 200.15899825 55.3359375 194.49609375 C63.60542126 182.24350902 66.21292922 172.31098961 65.3359375 157.49609375 C64.70132569 154.27637205 63.70673519 151.47002773 62.3359375 148.49609375 C61.84867188 147.38234375 61.84867188 147.38234375 61.3515625 146.24609375 C59.63290556 142.54437111 58.83307182 140.82751663 55.3359375 138.49609375 C55.3359375 137.83609375 55.3359375 137.17609375 55.3359375 136.49609375 C54.2221875 136.06296875 53.1084375 135.62984375 51.9609375 135.18359375 C48.3359375 133.49609375 48.3359375 133.49609375 46.3359375 130.49609375 C44.30577086 130.02586624 44.30577086 130.02586624 42.0234375 129.99609375 C39.05647534 129.87519886 37.58247485 129.65446542 35.05029297 128.02783203 C32.05143145 126.33554411 29.92685253 125.93657572 26.51953125 125.58203125 C24.87887695 125.40027344 24.87887695 125.40027344 23.20507812 125.21484375 C22.07263672 125.10140625 20.94019531 124.98796875 19.7734375 124.87109375 C17.52191126 124.63099906 15.27059817 124.38889486 13.01953125 124.14453125 C12.02493896 124.04317871 11.03034668 123.94182617 10.00561523 123.83740234 C3.89617657 123.05633282 3.89617657 123.05633282 2.3359375 121.49609375 C-1.18323006 121.08074136 -4.70013031 120.72549601 -8.23046875 120.421875 C-12.70348704 119.96607521 -16.02988734 119.38889717 -19.6640625 116.49609375 C-19.6640625 115.83609375 -19.6640625 115.17609375 -19.6640625 114.49609375 C-20.6540625 114.49609375 -21.6440625 114.49609375 -22.6640625 114.49609375 C-22.6640625 113.83609375 -22.6640625 113.17609375 -22.6640625 112.49609375 C-23.5921875 112.57859375 -24.5203125 112.66109375 -25.4765625 112.74609375 C-26.5284375 112.66359375 -27.5803125 112.58109375 -28.6640625 112.49609375 C-30.1640625 110.68359375 -30.1640625 110.68359375 -31.6640625 108.49609375 C-32.6334375 108.02171875 -33.6028125 107.54734375 -34.6015625 107.05859375 C-38.1144249 105.26631701 -39.3908017 103.69286674 -41.6640625 100.49609375 C-42.15003906 99.90699219 -42.63601562 99.31789063 -43.13671875 98.7109375 C-47.04970847 93.87498214 -49.13585431 89.49976877 -50.6640625 83.49609375 C-50.9425 82.5009375 -51.2209375 81.50578125 -51.5078125 80.48046875 C-54.89116253 67.00972325 -56.49150065 49.25787607 -49.64453125 36.61328125 C-48.70065395 35.2063031 -47.68588026 33.84753015 -46.6640625 32.49609375 C-46.37273438 31.72652344 -46.08140625 30.95695312 -45.78125 30.1640625 C-41.48294046 19.89921838 -32.04826217 12.84357959 -22.6640625 7.49609375 C-20.29643707 6.54423273 -18.052689 5.78490239 -15.56640625 5.2265625 C-13.47598574 4.61694865 -13.47598574 4.61694865 -12.14916992 2.48144531 C-8.34748017 -0.55572348 -4.7310152 -0.05837691 0 0 Z " fill="#9A6C31" transform="translate(2977.6640625,233.50390625)"/>
<path d="M0 0 C1.42087418 -0.00218285 1.42087418 -0.00218285 2.87045288 -0.00440979 C4.87606884 -0.00275048 6.88169749 0.00881431 8.88720703 0.02954102 C11.92927451 0.05829447 14.96957607 0.05019014 18.01171875 0.03710938 C19.96615418 0.04335361 21.92058416 0.05174988 23.875 0.0625 C25.22242783 0.05809654 25.22242783 0.05809654 26.59707642 0.05360413 C32.79790844 0.1442962 38.60985873 0.99690168 44.3359375 3.49609375 C45.604375 4.82640625 45.604375 4.82640625 46.8984375 6.18359375 C50.09155288 9.21295963 52.09651421 9.02200196 56.34765625 8.96484375 C58.73197213 8.64148599 58.73197213 8.64148599 60.3359375 5.49609375 C64.5529966 3.48284157 69.65652772 1.67031555 74.3359375 2.49609375 C75.9230957 3.50097656 75.9230957 3.50097656 77.3359375 5.49609375 C77.73816073 8.32196018 77.96491771 10.95432727 78.06640625 13.79296875 C78.12662712 15.03170746 78.12662712 15.03170746 78.18806458 16.29547119 C78.31312559 18.94526276 78.41811559 21.59545227 78.5234375 24.24609375 C78.60489684 25.98443274 78.68756682 27.72271545 78.77148438 29.4609375 C79.00509933 34.47148968 79.1806617 39.48257349 79.3359375 44.49609375 C79.37633148 45.63485962 79.37633148 45.63485962 79.4175415 46.79663086 C79.4869803 48.88917683 79.53474845 50.98091961 79.57421875 53.07421875 C79.60169189 54.24887695 79.62916504 55.42353516 79.6574707 56.63378906 C79.3359375 59.49609375 79.3359375 59.49609375 77.99291992 61.35449219 C76.3359375 62.49609375 76.3359375 62.49609375 73.5859375 63.18359375 C67.90942128 61.98279224 65.1829548 57.23829121 62.0625 52.60546875 C60.7962931 50.58293693 59.56724342 48.54006158 58.3359375 46.49609375 C54.17562679 39.75134759 50.27357079 33.97605092 44.0625 29 C42.3359375 27.49609375 42.3359375 27.49609375 40.4609375 24.55859375 C36.40403712 18.71188438 30.19228963 13.62683703 23.3359375 11.49609375 C20.47207593 11.21881808 17.63707268 11.12075542 14.76171875 11.03515625 C12.3359375 10.49609375 12.3359375 10.49609375 11.00390625 8.45703125 C10.67326172 7.48636719 10.67326172 7.48636719 10.3359375 6.49609375 C9.52189453 6.94662109 9.52189453 6.94662109 8.69140625 7.40625 C7.61826172 7.97666016 7.61826172 7.97666016 6.5234375 8.55859375 C5.81574219 8.94144531 5.10804688 9.32429687 4.37890625 9.71875 C2.3359375 10.49609375 2.3359375 10.49609375 -0.6640625 9.49609375 C-3.27626656 10.7279358 -5.72772357 12.0033217 -8.2265625 13.43359375 C-15.43597402 17.49609375 -15.43597402 17.49609375 -17.6640625 17.49609375 C-17.8909375 18.42421875 -18.1178125 19.35234375 -18.3515625 20.30859375 C-19.6640625 23.49609375 -19.6640625 23.49609375 -22.0390625 24.80859375 C-26.27099061 27.52911896 -27.53900919 30.6511061 -28.6640625 35.49609375 C-28.98441852 38.68588294 -29.07528968 41.85392821 -29.1015625 45.05859375 C-29.1116333 45.86167969 -29.1217041 46.66476562 -29.13208008 47.4921875 C-29.03815884 53.99340204 -28.03010356 59.92724917 -23.4765625 64.87109375 C-22.8784375 65.40734375 -22.2803125 65.94359375 -21.6640625 66.49609375 C-21.6640625 67.15609375 -21.6640625 67.81609375 -21.6640625 68.49609375 C-21.1071875 68.74359375 -20.5503125 68.99109375 -19.9765625 69.24609375 C-17.6640625 70.49609375 -17.6640625 70.49609375 -15.4765625 72.43359375 C-7.54789308 78.24795132 3.10634292 78.71510419 12.5859375 80.05859375 C14.02485086 80.26811745 15.46365399 80.47839959 16.90234375 80.68945312 C19.7115997 81.10058671 22.52114206 81.50963829 25.33105469 81.91625977 C25.99955444 82.01311066 26.6680542 82.10996155 27.35681152 82.20974731 C29.28106061 82.48815398 31.20546948 82.76545553 33.12988281 83.04272461 C34.28069336 83.21296143 35.43150391 83.38319824 36.6171875 83.55859375 C37.62330078 83.70554687 38.62941406 83.8525 39.66601562 84.00390625 C42.77962542 84.57788552 45.55518044 85.495522 48.4609375 86.73046875 C50.47431797 87.55259911 52.49179025 88.10022416 54.5859375 88.68359375 C65.69646022 92.34872301 77.44401398 101.25198763 83.31640625 111.46484375 C84.95160754 114.72271606 86.19041074 118.03987588 87.3359375 121.49609375 C87.72072266 122.57890625 87.72072266 122.57890625 88.11328125 123.68359375 C88.9014071 125.94210364 89.63192804 128.21004057 90.3359375 130.49609375 C90.54476562 131.15867187 90.75359375 131.82125 90.96875 132.50390625 C93.94333582 143.52244247 92.72246884 155.00830975 90.6484375 166.05859375 C90.50003418 166.89108643 90.35163086 167.7235791 90.19873047 168.58129883 C89.0083417 174.34531718 86.96728642 177.87809214 83.3359375 182.49609375 C82.65065705 184.15519379 81.97701887 185.81941939 81.3359375 187.49609375 C80.6759375 187.82609375 80.0159375 188.15609375 79.3359375 188.49609375 C78.32242086 190.15457552 77.32472955 191.82275336 76.3359375 193.49609375 C74.2734375 196.30859375 74.2734375 196.30859375 72.3359375 198.49609375 C71.6759375 198.49609375 71.0159375 198.49609375 70.3359375 198.49609375 C70.0884375 199.11484375 69.8409375 199.73359375 69.5859375 200.37109375 C68.08591441 202.921133 66.9662126 203.25831723 64.3359375 204.49609375 C63.7378125 205.13546875 63.1396875 205.77484375 62.5234375 206.43359375 C60.45845228 208.38057982 59.21085951 209.09089551 56.6484375 210.12109375 C53.25906024 211.10432011 53.25906024 211.10432011 52.3359375 213.49609375 C50.4453125 213.875 50.4453125 213.875 48.0859375 214.05859375 C44.77306777 214.35448004 41.58648049 214.76210017 38.3359375 215.49609375 C38.3359375 216.48609375 38.3359375 217.47609375 38.3359375 218.49609375 C33.52684544 220.90063978 26.27821089 219.85134586 20.93847656 219.90112305 C19.23188689 219.92241539 17.52539729 219.95616118 15.81933594 220.00366211 C6.14212934 220.27015516 -2.53562226 219.76093293 -11.7890625 216.71875 C-12.55347656 216.46830429 -13.31789063 216.21785858 -14.10546875 215.95982361 C-19.30414726 214.06490678 -19.30414726 214.06490678 -21.02734375 211.34155273 C-21.23746094 210.73255127 -21.44757812 210.1235498 -21.6640625 209.49609375 C-26.05930565 207.89782351 -31.03822408 208.40539104 -35.6640625 208.49609375 C-35.90640625 209.25019531 -36.14875 210.00429688 -36.3984375 210.78125 C-38.49001048 215.26780314 -42.21652077 217.51857939 -46.6640625 219.49609375 C-50.1640625 218.99609375 -50.1640625 218.99609375 -52.6640625 217.49609375 C-53.91146009 215.00129857 -53.86223815 213.18294002 -53.96118164 210.39135742 C-54.00114761 209.32652634 -54.04111359 208.26169525 -54.08229065 207.16459656 C-54.14017006 205.4318322 -54.14017006 205.4318322 -54.19921875 203.6640625 C-54.24219589 202.48016434 -54.28517303 201.29626617 -54.32945251 200.07649231 C-54.46613507 196.27899924 -54.59630156 192.48131196 -54.7265625 188.68359375 C-54.81795684 186.13344908 -54.9097487 183.58331863 -55.00195312 181.03320312 C-55.16903923 176.35188524 -55.33590995 171.67056483 -55.49633789 166.98901367 C-55.52885147 166.04684494 -55.56136505 165.10467621 -55.59486389 164.13395691 C-55.61769943 163.26346207 -55.64053497 162.39296722 -55.6640625 161.49609375 C-55.72939682 160.59905228 -55.79473114 159.7020108 -55.86204529 158.77778625 C-55.79671097 158.02482773 -55.73137665 157.2718692 -55.6640625 156.49609375 C-52.50703266 154.39140719 -50.45087894 153.90599901 -46.671875 153.96875 C-43.40018001 154.82804732 -42.20654631 157.00383345 -40.4765625 159.76953125 C-39.6640625 161.49609375 -39.6640625 161.49609375 -39.6640625 163.49609375 C-39.0040625 163.49609375 -38.3440625 163.49609375 -37.6640625 163.49609375 C-37.2928125 164.30046875 -36.9215625 165.10484375 -36.5390625 165.93359375 C-31.6766826 175.63552548 -24.65225444 184.41019594 -17.4609375 192.4765625 C-16.22788544 193.86240579 -15.00981112 195.26167783 -13.8046875 196.671875 C-13.20140625 197.37699219 -12.598125 198.08210937 -11.9765625 198.80859375 C-11.43644531 199.44410156 -10.89632812 200.07960938 -10.33984375 200.734375 C-6.42345462 204.8516046 -3.27103606 206.04008825 2.3359375 207.12109375 C3.5528125 207.36085938 4.7696875 207.600625 6.0234375 207.84765625 C7.1165625 208.06164062 8.2096875 208.275625 9.3359375 208.49609375 C10.00753906 208.68558594 10.67914062 208.87507812 11.37109375 209.0703125 C14.18370502 209.6798048 16.89901616 209.6669786 19.7734375 209.68359375 C20.88589844 209.69777344 21.99835937 209.71195313 23.14453125 209.7265625 C26.33376216 209.49625084 28.42326203 208.73192111 31.3359375 207.49609375 C32.70874678 207.40802674 34.08531628 207.36586325 35.4609375 207.37109375 C43.3775464 206.66827922 50.16028099 200.15899825 55.3359375 194.49609375 C63.60542126 182.24350902 66.21292922 172.31098961 65.3359375 157.49609375 C64.70132569 154.27637205 63.70673519 151.47002773 62.3359375 148.49609375 C61.84867188 147.38234375 61.84867188 147.38234375 61.3515625 146.24609375 C59.63290556 142.54437111 58.83307182 140.82751663 55.3359375 138.49609375 C55.3359375 137.83609375 55.3359375 137.17609375 55.3359375 136.49609375 C54.2221875 136.06296875 53.1084375 135.62984375 51.9609375 135.18359375 C48.3359375 133.49609375 48.3359375 133.49609375 46.3359375 130.49609375 C44.30577086 130.02586624 44.30577086 130.02586624 42.0234375 129.99609375 C39.05647534 129.87519886 37.58247485 129.65446542 35.05029297 128.02783203 C32.05143145 126.33554411 29.92685253 125.93657572 26.51953125 125.58203125 C24.87887695 125.40027344 24.87887695 125.40027344 23.20507812 125.21484375 C22.07263672 125.10140625 20.94019531 124.98796875 19.7734375 124.87109375 C17.52191126 124.63099906 15.27059817 124.38889486 13.01953125 124.14453125 C12.02493896 124.04317871 11.03034668 123.94182617 10.00561523 123.83740234 C3.89617657 123.05633282 3.89617657 123.05633282 2.3359375 121.49609375 C-1.18323006 121.08074136 -4.70013031 120.72549601 -8.23046875 120.421875 C-12.70348704 119.96607521 -16.02988734 119.38889717 -19.6640625 116.49609375 C-19.6640625 115.83609375 -19.6640625 115.17609375 -19.6640625 114.49609375 C-20.6540625 114.49609375 -21.6440625 114.49609375 -22.6640625 114.49609375 C-22.6640625 113.83609375 -22.6640625 113.17609375 -22.6640625 112.49609375 C-23.5921875 112.57859375 -24.5203125 112.66109375 -25.4765625 112.74609375 C-26.5284375 112.66359375 -27.5803125 112.58109375 -28.6640625 112.49609375 C-30.1640625 110.68359375 -30.1640625 110.68359375 -31.6640625 108.49609375 C-32.6334375 108.02171875 -33.6028125 107.54734375 -34.6015625 107.05859375 C-38.1144249 105.26631701 -39.3908017 103.69286674 -41.6640625 100.49609375 C-42.15003906 99.90699219 -42.63601562 99.31789063 -43.13671875 98.7109375 C-47.04970847 93.87498214 -49.13585431 89.49976877 -50.6640625 83.49609375 C-50.9425 82.5009375 -51.2209375 81.50578125 -51.5078125 80.48046875 C-54.89116253 67.00972325 -56.49150065 49.25787607 -49.64453125 36.61328125 C-48.70065395 35.2063031 -47.68588026 33.84753015 -46.6640625 32.49609375 C-46.37273438 31.72652344 -46.08140625 30.95695312 -45.78125 30.1640625 C-41.48294046 19.89921838 -32.04826217 12.84357959 -22.6640625 7.49609375 C-20.29643707 6.54423273 -18.052689 5.78490239 -15.56640625 5.2265625 C-13.47598574 4.61694865 -13.47598574 4.61694865 -12.14916992 2.48144531 C-8.34748017 -0.55572348 -4.7310152 -0.05837691 0 0 Z " fill="#B59251" transform="translate(2776.6640625,233.50390625)"/>
<path d="M0 0 C1.9658853 2.29353286 2.4263682 3.7310963 2.5 6.75 C1.30712891 8.88793945 1.30712891 8.88793945 -0.5 10.75 C-2.75244141 11.18823242 -2.75244141 11.18823242 -5.3515625 11.10546875 C-6.28484375 11.08806641 -7.218125 11.07066406 -8.1796875 11.05273438 C-9.15164063 11.01470703 -10.12359375 10.97667969 -11.125 10.9375 C-13.05458697 10.88545193 -14.98427756 10.83707048 -16.9140625 10.79296875 C-18.19724365 10.74692505 -18.19724365 10.74692505 -19.50634766 10.69995117 C-21.50059982 10.52088702 -21.50059982 10.52088702 -22.5 11.75 C-22.59987552 14.13981522 -22.63442354 16.5007859 -22.62698364 18.89115906 C-22.62854363 19.64732083 -22.63010362 20.4034826 -22.63171089 21.18255836 C-22.63572397 23.73590138 -22.63253 26.28918575 -22.62939453 28.8425293 C-22.63074849 30.66543106 -22.6325284 32.48833255 -22.63470459 34.31123352 C-22.63928115 39.27836768 -22.63748803 44.24548118 -22.6343255 49.21261573 C-22.63180113 54.40418032 -22.63413984 59.59574308 -22.63571167 64.78730774 C-22.63753395 73.51274942 -22.63512638 82.23818265 -22.63037109 90.96362305 C-22.62493687 101.05130463 -22.62668478 111.13896599 -22.6321975 121.22664708 C-22.63673713 129.87976972 -22.63737475 138.53288626 -22.63475883 147.18600971 C-22.63319965 152.3572576 -22.63299232 157.52849599 -22.63629532 162.69974327 C-22.63918605 167.56616473 -22.63717616 172.43256016 -22.63140106 177.29897881 C-22.63007956 179.08478502 -22.63045724 180.87059343 -22.63266373 182.65639877 C-22.63539938 185.09560292 -22.63196443 187.53472387 -22.62698364 189.97392273 C-22.62921436 190.67947994 -22.63144509 191.38503716 -22.63374341 192.1119749 C-22.61799428 196.09337034 -22.26472101 199.84297409 -21.5 203.75 C-20.81897217 203.70399658 -20.13794434 203.65799316 -19.4362793 203.6105957 C-16.35415419 203.41157082 -13.27111974 203.23676762 -10.1875 203.0625 C-9.11564453 202.98966797 -8.04378906 202.91683594 -6.93945312 202.84179688 C-5.91142578 202.78701172 -4.88339844 202.73222656 -3.82421875 202.67578125 C-2.87635498 202.61817627 -1.92849121 202.56057129 -0.9519043 202.5012207 C1.5 202.75 1.5 202.75 3.34838867 204.02807617 C4.5 205.75 4.5 205.75 4.25 209.375 C3.5 212.75 3.5 212.75 2.5 213.75 C-0.24298706 214.00243677 -2.95672562 214.17602179 -5.70703125 214.30078125 C-6.61733597 214.34262039 -7.52764069 214.38445953 -8.4655304 214.42756653 C-22.68910726 214.99926096 -36.93069109 214.9371233 -51.16333008 214.93530273 C-55.39886626 214.93519941 -59.63424113 214.94906613 -63.86973858 214.96607494 C-67.15272293 214.97714656 -70.43566687 214.97922376 -73.71866798 214.97869301 C-75.28282053 214.97987215 -76.84697415 214.98429026 -78.41110802 214.99202538 C-80.5758702 215.0017653 -82.74026183 214.998976 -84.9050293 214.99291992 C-86.13408493 214.99434494 -87.36314056 214.99576996 -88.62944031 214.99723816 C-91.5 214.75 -91.5 214.75 -93.5 212.75 C-93.75 209.75 -93.75 209.75 -93.5 206.75 C-90.89911378 204.14911378 -89.67862887 204.45037775 -86.0546875 204.3359375 C-84.97832031 204.29726563 -83.90195313 204.25859375 -82.79296875 204.21875 C-81.10107422 204.17234375 -81.10107422 204.17234375 -79.375 204.125 C-78.23933594 204.08632813 -77.10367187 204.04765625 -75.93359375 204.0078125 C-73.12256044 203.91332399 -70.31153767 203.82776459 -67.5 203.75 C-66.01521385 200.7804277 -66.37263256 198.11022543 -66.37060547 194.79589844 C-66.36887581 194.07460503 -66.36714615 193.35331161 -66.36536407 192.61016083 C-66.36098263 190.19320946 -66.36396594 187.77632737 -66.3671875 185.359375 C-66.36617227 183.64833556 -66.36483305 181.93729628 -66.3631897 180.22625732 C-66.3604755 175.6106746 -66.36498194 170.99512518 -66.37142944 166.37954712 C-66.37499755 163.50197245 -66.37661814 160.62440278 -66.37768555 157.74682617 C-66.39012183 130.7473366 -66.62864622 103.76258111 -67.1418457 76.76806641 C-67.55001805 55.09376174 -67.61259645 33.42741588 -67.5 11.75 C-68.90989665 11.58103307 -70.32022226 11.41564362 -71.73071289 11.25170898 C-72.90870201 11.11296608 -72.90870201 11.11296608 -74.11048889 10.97142029 C-78.43102098 10.57106498 -82.74470562 10.74641579 -87.07617188 10.87695312 C-88.88437143 10.90631262 -90.69359015 10.83562174 -92.5 10.75 C-94.5 8.75 -94.5 8.75 -94.9375 5.8125 C-94.5 2.75 -94.5 2.75 -92.33891296 1.07987976 C-89.1602774 -0.40914197 -87.13326079 -0.61354458 -83.63989258 -0.59057617 C-81.90833672 -0.59023628 -81.90833672 -0.59023628 -80.14179993 -0.58988953 C-78.90520126 -0.57440567 -77.6686026 -0.55892181 -76.39453125 -0.54296875 C-74.48120247 -0.53660149 -74.48120247 -0.53660149 -72.52922058 -0.53010559 C-69.1481048 -0.51617343 -65.76760301 -0.48925868 -62.38665771 -0.45599365 C-58.94076804 -0.42526933 -55.49481544 -0.41158305 -52.04882812 -0.39648438 C-46.00199874 -0.36696483 -39.95542472 -0.32431443 -33.9087677 -0.27018738 C-31.03808192 -0.24612876 -28.56680726 -0.36557454 -25.68359375 -0.72265625 C-24.91853516 -0.81740234 -24.15347656 -0.91214844 -23.36523438 -1.00976562 C-21.77317392 -1.20829287 -20.18196298 -1.41378348 -18.59179688 -1.62695312 C-12.36537021 -2.37868657 -5.74407467 -2.87203734 0 0 Z M-3.5 209.75 C-3.83 210.41 -4.16 211.07 -4.5 211.75 C-3.84 211.75 -3.18 211.75 -2.5 211.75 C-2.83 211.09 -3.16 210.43 -3.5 209.75 Z M-85.5 210.75 C-85.17 211.41 -84.84 212.07 -84.5 212.75 C-83.84 212.42 -83.18 212.09 -82.5 211.75 C-83.49 211.42 -84.48 211.09 -85.5 210.75 Z " fill="#B79453" transform="translate(1925.5,235.25)"/>
<path d="M0 0 C0.66 0 1.32 0 2 0 C1.67 1.65 1.34 3.3 1 5 C0.34 5 -0.32 5 -1 5 C-0.67 3.35 -0.34 1.7 0 0 Z " fill="#9C6D31" transform="translate(2990,248)"/>
<path d="M0 0 C0.66 0 1.32 0 2 0 C1.67 1.65 1.34 3.3 1 5 C0.34 5 -0.32 5 -1 5 C-0.67 3.35 -0.34 1.7 0 0 Z " fill="#B59351" transform="translate(2789,248)"/>
</svg>
